<svg width="150" height="175" viewBox="0 0 150 175" fill="none" xmlns="http://www.w3.org/2000/svg">
<g clip-path="url(#clip0_7_219)">
<path d="M75.6124 21.9479C68.5311 23.9677 66.4499 25.4042 64.0999 34.9781C67.0874 27.9636 69.3499 25.3896 75.6124 21.9479ZM95.7874 22.5021C90.5749 22.1156 85.0686 23.7927 78.5624 26.9865C75.7994 28.2934 73.2609 30.1707 71.0686 32.5281C69.1311 34.6209 67.4686 37.049 65.6561 39.8636C64.653 39.8838 63.6616 40.1186 62.7311 40.5563C61.4875 41.1868 60.3476 42.0652 59.3624 43.1521C58.4811 44.0563 57.6124 44.9896 56.7624 45.9448V45.9594C55.9936 46.8344 55.2374 47.7167 54.4936 48.6209C48.5874 49.7292 43.7436 50.9542 39.4311 52.9084C34.8932 54.9555 30.7188 57.9641 27.1186 61.7823C25.5421 63.4051 24.1041 65.2024 22.8249 67.149C21.6329 68.9902 20.581 70.9494 19.6811 73.0042C18.8686 74.0396 18.0561 75.1042 17.1874 76.0229C16.3847 76.9056 15.4506 77.6098 14.4311 78.1011C13.8499 78.3563 13.5999 78.524 13.5749 78.5094C13.5499 78.5021 13.5249 78.2688 13.4999 78.1667C14.9686 76.6354 15.1686 74.1563 15.3061 71.8958C15.4936 72.1438 15.6374 72.3917 15.8186 72.7198C16.0124 73.0625 16.2061 73.4125 16.4436 73.7552L17.4311 75.2136L17.7749 73.3979C18.0624 71.8813 18.2811 69.8688 17.9436 68.1188C17.7311 67.0031 17.2124 65.8219 16.4749 65.2531L16.6999 64.5969C16.9499 63.8677 17.1999 63.1094 17.4186 62.3875L17.8499 60.9802L16.5749 61.2354C14.8874 61.5781 11.2499 63.9042 8.69364 67.0031C7.74364 68.1552 6.91864 69.4094 6.38114 70.7511C5.81001 72.0802 5.6069 73.5835 5.79989 75.0531C6.02033 76.444 6.61597 77.7163 7.49989 78.6844C7.68739 79.5594 7.86239 80.3104 8.04364 80.9886C8.24989 81.7469 8.46864 82.4323 8.74364 83.1031C9.48739 84.9042 10.6811 86.0052 12.0499 86.5156C13.1874 86.9458 14.3561 86.9969 15.5874 86.6615C15.3072 88.3192 15.1566 90.0032 15.1374 91.6927C15.0552 95.0891 15.2015 98.4877 15.5749 101.857C15.6561 102.535 15.7499 103.199 15.8561 103.863L15.1874 105.984L14.1499 109.302L11.8374 111.964L9.69364 114.443C9.52385 114.638 9.35301 114.833 9.18114 115.026C7.73114 116.659 7.43739 116.995 7.84989 119.853C8.09989 121.61 8.59364 123.382 9.36239 125.103C10.0749 126.678 11.0311 128.217 12.2561 129.653C13.7874 131.44 16.2999 133.664 18.9186 134.83C20.4499 135.501 21.9686 135.836 23.4374 135.538L23.1936 136.34C22.9625 137.08 22.7061 137.81 22.4249 138.527C20.6436 143.077 22.4749 145.454 25.3186 146.971C26.7374 147.729 28.4249 148.232 29.9936 148.706L31.0436 149.034C32.9061 149.618 36.1186 150.697 39.0499 150.916C42.2561 151.156 45.1374 150.383 45.9124 147.029C46.2186 145.702 46.3999 144.681 46.4749 143.682C46.528 142.695 46.507 141.705 46.4124 140.722C47.3124 138.389 47.7249 137.638 48.3874 136.507L48.7186 135.924C49.4374 134.684 49.7686 133.809 49.8936 132.818C50.0061 131.863 49.9186 130.907 49.7686 129.456L49.6999 128.844C52.4704 129.285 55.2714 129.407 58.0624 129.208L57.3249 129.653L56.9811 129.872C54.5124 131.352 54.3999 134.152 55.1749 137.047C55.8749 139.65 57.3186 142.319 58.2186 143.938C60.1124 147.343 61.9186 150.216 64.1124 151.783C66.4124 153.431 69.0249 153.628 72.4124 151.492C74.1374 150.398 74.6811 149.29 75.4124 147.795C75.6499 147.314 75.9124 146.825 76.1999 146.307C76.8311 145.943 78.5874 144.149 80.3874 142.414L82.2374 140.649C82.6936 141.035 83.2624 141.305 83.9249 141.488C84.7999 141.735 85.8311 141.852 87.0749 141.961C88.0061 142.034 91.0436 142.034 93.0061 142.034H94.4249C96.4499 142.042 98.0811 141.918 99.3186 141.101C100.631 140.233 101.406 138.688 101.575 135.924C101.675 135.007 101.658 134.079 101.525 133.168C101.362 132.356 101.074 131.585 100.675 130.893L100.587 127.232L100.487 123.433C100.474 122.116 100.331 120.805 100.062 119.525C99.7673 118.266 99.3912 117.035 98.9374 115.843C98.6061 114.917 98.3374 114.056 98.0749 113.218C97.6569 111.86 97.1792 110.529 96.6436 109.229L96.7561 108.332L97.8874 109.601L99.5499 111.482C100.819 112.911 101.987 114.202 103.344 115.143C104.756 116.113 106.337 116.674 108.387 116.565C110.691 116.36 112.896 115.385 114.737 113.757C116.569 112.182 118.037 110.046 118.656 107.691L119.181 105.656L119.619 104.016C122.631 104.614 125.856 104.818 128.981 104.431C131.925 104.124 134.792 103.161 137.425 101.595C140.967 99.3585 143.893 95.9957 145.862 91.8969H145.875V91.8823C148.094 87.3906 149.344 82.1115 149.812 76.6573C150.2 72.2896 149.987 66.3396 149.206 60.6156C148.519 55.5042 147.362 50.5531 145.769 46.9802C145.542 46.499 145.253 46.0613 144.912 45.6823C144 44.6727 142.913 43.902 141.725 43.4219C140.437 42.9115 139.087 42.8094 138.012 43.4656C137.728 43.6358 137.469 43.8572 137.244 44.1219C136.549 44.999 135.921 45.9457 135.369 46.9511C134.706 48.0667 134.056 49.1896 133.262 49.9698C132.331 50.9031 131.219 51.4427 130.125 51.9531C129.67 50.668 129.124 49.429 128.494 48.249C127.742 46.8703 126.909 45.5546 126 44.3115C125.325 43.3643 124.56 42.5105 123.719 41.7667C122.891 41.0527 122.036 40.3836 121.156 39.7615C118.612 37.9021 116.444 35.6854 114.231 33.4177C113.231 32.3969 112.212 31.3615 111.219 30.4063C105.956 25.3386 101.044 22.8886 95.7874 22.5021ZM69.9811 22.5313C66.4186 23.5302 65.7311 24.3177 64.6624 28.3938C66.3686 25.4042 67.3499 24.4198 69.9811 22.5313ZM94.6811 25.9219C99.8624 25.9146 104.6 28.1313 109.875 33.3084C112.45 35.8386 114.712 38.2959 117.325 40.4761C116.375 40.5709 115.556 40.7677 114.481 41.2563C115.794 40.9646 117.3 41.2563 118.669 41.5479C119.044 41.8323 119.444 42.1167 119.85 42.3938C121.694 43.6625 122.744 44.3625 123.987 46.3823C125.3 48.5261 126.4 50.6771 127.369 53.0323C126.737 52.7698 126.206 52.5438 125.731 52.3761C125.201 52.0943 124.62 51.9695 124.039 52.0128C123.458 52.056 122.895 52.266 122.4 52.624L122.325 52.6677C121.306 53.2438 119.725 53.9073 118.662 54.1042C119.491 54.3809 120.372 54.3657 121.194 54.0604C120.896 54.6527 120.729 55.3225 120.71 56.0089C120.69 56.6953 120.818 57.3765 121.081 57.9906C120.983 57.7139 120.94 57.4146 120.956 57.1156C120.972 56.8963 121.025 56.6828 121.112 56.4875C121.199 56.2923 121.318 56.119 121.463 55.978C121.607 55.8369 121.775 55.7307 121.955 55.6657C122.135 55.6006 122.325 55.5779 122.512 55.599C122.743 55.6272 122.965 55.7192 123.159 55.8674C123.353 56.0156 123.513 56.2157 123.628 56.4511C123.742 56.6865 123.807 56.9503 123.816 57.2206C123.825 57.4909 123.779 57.7599 123.681 58.0052C122.95 58.1511 122.225 58.4063 121.475 58.7344C120.976 58.9486 120.482 59.1796 119.994 59.4271C122.234 58.993 124.516 58.9438 126.769 59.2813C126.925 60.1344 127.081 61.0313 127.225 61.95L126.369 62.0229L126.294 62.0375C125.206 61.0167 124 61.1844 122.337 61.6219C117.3 62.9636 118.481 66.2667 116.162 71.2323C118.569 67.8052 118.394 64.2177 122.312 63.1386C123.231 62.8761 123.856 62.5698 124.475 62.6792C123.362 63.3354 122.394 64.4073 122.012 65.6688C120.931 69.2125 121.606 72.1948 120.425 75.5125C121.887 72.5448 121.981 69.6646 123.294 66.5438C123.762 65.4281 125.506 63.6271 126.575 63.6052L127.45 63.5906C127.712 65.5594 127.875 67.5209 127.775 69.1396C127.553 72.1849 127.14 75.2069 126.537 78.1813C127.869 76.1979 128.475 71.9834 129.056 69.0156C129.662 65.924 129.494 62.2052 128.969 58.8875C128.237 54.3302 132.262 55.0813 134.594 52.9375C136.312 51.3552 137.487 48.825 139.062 47.0386C140.625 45.2667 143.087 47.8698 143.7 49.6052C146.362 57.1156 147.575 68.9281 146.875 76.5115C146.087 84.999 142.562 94.2813 136.131 98.4594C127.944 103.797 118.294 100.538 110.156 97.3365C108.419 96.6583 107.219 95.6667 105.687 94.5511C106.106 96.7386 106.294 99.0354 105.737 101.216C104.862 104.672 103.444 110.338 107.469 111.38C109.006 111.781 109.7 111.73 111.869 110.432C110.609 110.819 109.289 110.846 108.019 110.513C107.566 110.425 107.142 110.193 106.796 109.841C106.449 109.49 106.193 109.033 106.056 108.522C106.431 108.843 107.056 109.003 108.119 109.302C111.106 110.141 113.944 108.471 114.5 106.057C114.825 104.643 114.769 103.906 115.456 101.981C116.075 102.2 116.719 102.411 117.369 102.594L116.262 106.808C115.3 110.461 111.562 113.4 108.262 113.334C105.212 113.269 103.281 111.045 101.175 108.865L96.9374 104.49C93.2 103.2 89.6905 101.14 86.5749 98.4084C89.0749 101.85 90.7811 103.746 94.2749 105.459C93.7686 111.511 91.9624 115.93 90.4311 121.72C89.7374 124.345 84.2374 134.845 82.7186 135.866C81.6311 136.595 74.8436 143.274 73.5624 144.149C72.6061 145.629 71.7686 147.671 70.3374 148.553C65.9749 151.251 63.1624 146.081 60.8186 141.728C59.7499 139.745 56.7874 134.043 59.3811 132.446C61.8186 130.929 63.1936 129.843 65.6874 127.925C66.0561 128.713 66.6811 129.471 67.0936 130.258L66.8249 127.692C66.6734 126.249 66.6566 124.792 66.7749 123.346C66.8749 121.844 66.9624 120.334 67.0686 118.825C66.6936 120.356 65.9499 121.888 65.5749 123.419C65.4249 124.031 65.2936 124.527 65.2249 124.979C59.7025 126.313 54.012 126.397 48.4624 125.227C48.1314 122.964 47.7458 120.713 47.3061 118.475C47.1936 120.502 47.2624 126.109 47.2561 129.238C47.2499 131.666 47.1561 132.504 46.0811 134.568C45.0811 136.5 44.6561 136.938 43.2499 140.204C43.3686 142.268 43.3686 143.631 42.8936 145.593C42.1124 148.845 34.2311 146.307 32.1561 145.644C29.5936 144.827 24.3061 143.617 25.6374 139.635C26.8061 136.135 27.5561 132.446 28.1249 127.546C23.4374 119.671 19.0749 108.879 18.2374 99.3052C17.5874 91.875 17.9874 87.3031 19.3624 82.7531C21.5499 75.5563 24.5936 69.3146 29.4874 64.3052C36.1124 57.5313 42.2936 54.8042 51.9749 53.0834C49.6436 56.124 47.3436 59.3396 44.8311 62.7813C42.2936 66.274 40.7811 69.8031 39.1686 73.624C36.9374 78.8886 36.9936 80.8865 39.9499 85.5094C42.4936 89.4979 43.8686 91.299 44.9749 95.1927C44.0624 97.4021 43.7249 99.2761 43.4124 102.288C46.5374 106.261 48.8499 108.981 51.8749 109.82C54.8436 110.644 57.3249 110.498 59.9811 108.908C65.8811 105.394 71.3311 100.836 77.9811 100.654C81.0624 91.824 80.7561 84.4521 79.2811 75.9136C78.2686 70.0802 77.8624 64.5604 77.5436 58.6104C76.2936 64.7354 76.0686 70.1094 76.9936 76.2125C78.1186 83.5625 78.9811 91.7 75.8686 98.1604C69.8561 98.6927 64.6936 102.958 59.2749 106.232C57.0874 107.545 54.8249 107.676 52.4124 106.903C50.1749 106.189 48.6624 104.468 46.2499 101.216C46.2124 97.9636 46.8436 96.4542 48.1249 93.5011C50.1874 88.7615 52.4686 84.35 54.9624 79.6906C51.8999 83.9927 49.0061 87.5948 46.5999 91.9188C45.6811 88.8636 44.3624 87.3031 42.1811 83.8615C40.0561 80.5 39.8374 79.0344 41.4311 75.1406C43.0249 71.2323 44.3811 67.7906 47.0999 64.3636C51.8061 58.4354 56.1186 51.8438 61.2624 46.0031C64.0561 42.8386 65.1874 42.9406 68.8874 42.2844C72.2574 41.685 75.6058 40.9309 78.9249 40.024C75.6962 40.3488 72.4589 40.5434 69.2186 40.6073H69.1249C72.2874 35.8969 74.1186 33.2719 79.2499 30.6688C85.1874 27.6646 90.1124 25.9146 94.6874 25.9146L94.6811 25.9219ZM98.1561 46.2656C91.2749 48.2781 89.9874 51.6542 90.8686 56.8386C91.6249 52.9375 92.9624 49.1823 98.1561 46.2656ZM77.7624 46.7104C74.9749 47.075 72.1999 47.4104 69.4124 47.724C67.0686 47.9792 66.6874 47.9427 65.0249 49.8604C62.5061 52.7698 60.0624 62.7521 59.2749 66.7479C60.5124 63.4302 63.5874 54.1406 65.9561 51.7781C66.6124 51.1219 67.0811 50.7354 67.5686 50.4438C65.8749 53.7615 65.9936 54.5709 66.5874 59.0188C67.0936 54.4979 68.4311 52.7552 70.6311 49.3938C73.0532 48.6791 75.4331 47.7828 77.7561 46.7104H77.7624ZM141.675 47.0969C140.081 50.8667 137.612 54.024 134.269 55.9563C132.469 56.9917 131.331 56.6344 129.325 56.4084C131.362 57.0938 132.656 57.9396 134.656 57.1083C138.731 55.4094 140.7 51.5959 141.675 47.0969ZM127.425 53.1781C127.569 53.5209 127.712 53.8781 127.844 54.2281C127.735 54.3212 127.631 54.421 127.531 54.5271C127.345 54.0317 127.077 53.5835 126.744 53.2073L127.431 53.1781H127.425ZM107.05 56.0948C104.8 57.3052 102.181 57.0136 100.256 58.5302C98.5624 59.8719 96.2186 64.1011 94.4936 65.8948C95.7436 65.3261 96.9561 64.349 98.0561 63.3136C98.0686 64.9177 98.6874 66.4198 99.7436 67.4334C99.5348 67.1743 99.3813 66.8614 99.2957 66.5202C99.21 66.1789 99.1945 65.8189 99.2506 65.4693C99.3066 65.1198 99.4325 64.7906 99.6181 64.5085C99.8037 64.2264 100.044 63.9994 100.319 63.8458C100.572 63.7059 100.848 63.6313 101.128 63.6271C101.408 63.6228 101.686 63.689 101.942 63.8212C102.198 63.9533 102.427 64.1483 102.613 64.3929C102.799 64.6375 102.937 64.9259 103.019 65.2386C102.094 66.0406 101.244 66.974 100.537 68.0604C99.9016 69.0355 99.3959 70.1172 99.0374 71.2688C102.345 66.7867 106.689 63.511 111.55 61.8333C110.3 61.8115 108.819 62.0813 107.312 62.6646C107.223 61.6628 106.893 60.7107 106.36 59.9185C105.827 59.1263 105.113 58.5261 104.3 58.1875C105.3 57.5677 106.275 56.9115 107.05 56.0948ZM100.537 68.0531C100.26 67.883 99.9982 67.6802 99.7561 67.4479C99.9754 67.7158 100.242 67.9248 100.537 68.0604V68.0531ZM8.24989 60.8125C2.29364 65.7125 0.812392 67.9438 1.61239 77.8604C2.19989 70.0584 3.49989 66.6823 8.24989 60.8125ZM3.19989 63.7584C0.187392 66.2084 -0.206358 67.2219 0.0748917 71.4802C0.731142 67.9656 1.34364 66.6386 3.19989 63.7584ZM14.3186 65.1802C13.8811 66.274 13.5811 67.1052 13.3686 67.9583C12.4499 71.6625 13.7811 74.9729 10.8999 77.6563C12.2561 80.85 12.1936 82.1188 15.3436 80.6459C16.5624 80.0771 17.5624 79.2823 18.4561 78.3417C18.0186 79.6542 17.6249 80.974 17.2624 82.3156L17.0749 83.0011C14.8249 84.1167 11.8624 84.824 10.7311 82.0531C10.1962 80.6549 9.77152 79.2027 9.46239 77.7146C5.74989 73.2302 11.2999 67.3094 14.3186 65.1802ZM15.0874 67.1927C15.8561 67.7104 16.0624 68.6511 16.1499 69.9271C15.6936 69.3875 15.3249 69.0375 14.7311 69.1104C14.8002 68.46 14.9195 67.8182 15.0874 67.1927ZM108.025 91.0146C107.206 91.175 105.744 91.525 104.931 91.6854C102.756 92.1156 102.512 92.7208 102.175 95.2146L101.637 99.0354C102.073 97.6367 102.548 96.2554 103.062 94.8938C103.587 93.5521 103.887 93.4208 105 92.7063C105.794 92.2104 107.231 91.5177 108.019 91.0146H108.025ZM17.5874 108.515C19.2999 115.413 22.1999 122.194 25.4311 127.889V127.991C25.2795 128.952 24.9627 129.867 24.4999 130.681C22.1936 134.276 16.3374 129.004 14.6374 126.977C12.7811 124.768 11.5374 122.15 11.2436 119.7C11.0311 117.906 11.2374 117.863 12.3061 116.594L16.6374 111.482L17.5936 108.522L17.5874 108.515ZM95.1186 113.035C95.4686 114.37 95.7499 115.69 96.2624 117.104C97.1249 119.481 97.5436 120.94 97.6061 123.484L97.8061 131.549C98.5374 133.051 98.6561 133.365 98.5249 135.078C98.2561 138.585 97.2561 138.819 94.6186 138.768C93.4186 138.746 88.6374 138.717 87.4311 138.6C85.7186 138.425 84.7499 138.235 84.2311 137.783C86.9186 135.479 91.4936 125.978 92.3811 122.704C93.3249 119.248 94.3499 116.229 95.1186 113.035Z" fill="black"/>
</g>
<defs>
<clipPath id="clip0_7_219">
<rect width="150" height="175" fill="white"/>
</clipPath>
</defs>
</svg>
