<svg width="150" height="175" viewBox="0 0 150 175" fill="none" xmlns="http://www.w3.org/2000/svg">
<g clip-path="url(#clip0_7_206)">
<path d="M143.498 38.7201L81.4912 1.60371C77.9192 -0.53457 72.0736 -0.53457 68.5017 1.60371L6.49595 38.7201C2.9237 40.8584 0.0012207 46.107 0.0012207 50.3836V124.616C0.279128 129.597 2.73283 133.722 6.49563 136.28L68.5023 173.396C72.0739 175.535 77.9196 175.535 81.4915 173.396L143.498 136.28C147.536 133.496 149.834 129.304 149.993 124.616V50.3836C149.848 45.8838 147.249 41.3455 143.498 38.7201H143.498ZM24.9997 87.5003C24.706 36.8836 90.0954 14.5335 118.294 61.5655L96.6564 74.5469C83.5944 52.1479 51.1623 60.1573 49.9982 87.5003C50.3477 112.701 82.2243 124.407 96.6577 100.452L118.295 113.433C93.4442 158.161 26.2528 142.069 25.0001 87.5003H24.9997ZM124.994 90.3796H119.438V96.1396H113.884V90.3796H108.329V84.6204H113.884V78.8611H119.439V84.6204H124.994V90.3796H124.994ZM145.826 90.3796H140.27V96.1396H134.716V90.3796H129.161V84.6204H134.716V78.8611H140.271V84.6204H145.826V90.3796H145.826Z" fill="black"/>
</g>
<defs>
<clipPath id="clip0_7_206">
<rect width="150" height="175" fill="white"/>
</clipPath>
</defs>
</svg>
