<svg xmlns="http://www.w3.org/2000/svg" xmlns:xlink="http://www.w3.org/1999/xlink" width="600" zoomAndPan="magnify" viewBox="0 0 450 299.999988" height="400" preserveAspectRatio="xMidYMid meet" version="1.0"><defs><clipPath id="id1"><path d="M 325 139 L 380.640625 139 L 380.640625 201 L 325 201 Z M 325 139 " clip-rule="nonzero"/></clipPath><clipPath id="id2"><path d="M 64.140625 279 L 178 279 L 178 295.5 L 64.140625 295.5 Z M 64.140625 279 " clip-rule="nonzero"/></clipPath></defs><rect x="-45" width="540" fill="#ffffff" y="-29.999999" height="359.999986" fill-opacity="1"/><rect x="-45" width="540" fill="#ffffff" y="-29.999999" height="359.999986" fill-opacity="1"/><rect x="-45" width="540" fill="#1d4261" y="-29.999999" height="359.999986" fill-opacity="1"/><path fill="#ffffff" d="M 110.660156 178.136719 L 339.28125 178.136719 C 348.015625 178.136719 355.09375 171.050781 355.09375 162.304688 L 355.09375 14.054688 L 94.859375 14.351562 L 94.859375 162.304688 C 94.851562 171.050781 101.925781 178.136719 110.660156 178.136719 Z M 110.660156 178.136719 " fill-opacity="1" fill-rule="nonzero"/><path fill="#ff5d5d" d="M 117.089844 169.480469 L 332.828125 169.480469 C 337.535156 169.480469 341.347656 165.664062 341.347656 160.953125 C 341.347656 160.953125 341.347656 160.953125 341.347656 160.945312 L 341.273438 46.609375 C 341.273438 41.894531 337.453125 38.078125 332.746094 38.078125 L 117 38.324219 C 112.292969 38.332031 108.488281 42.152344 108.488281 46.863281 L 108.5625 160.960938 C 108.570312 165.664062 112.382812 169.480469 117.089844 169.480469 Z M 117.089844 169.480469 " fill-opacity="0.1294" fill-rule="nonzero"/><path fill="#ff5d5d" d="M 94.851562 14.351562 C 94.851562 14.351562 95.390625 10.125 98.894531 6.027344 C 103.445312 0.714844 108.363281 0.65625 108.363281 0.65625 L 341.785156 0.65625 C 341.785156 0.65625 346.546875 1.476562 350.640625 5.589844 C 355.082031 10.058594 355.082031 14.054688 355.082031 14.054688 Z M 94.851562 14.351562 " fill-opacity="1" fill-rule="nonzero"/><path fill="#ffffff" d="M 110.570312 7.355469 C 110.570312 7.722656 110.5 8.074219 110.359375 8.410156 C 110.21875 8.75 110.019531 9.046875 109.761719 9.308594 C 109.503906 9.566406 109.207031 9.765625 108.867188 9.90625 C 108.53125 10.042969 108.179688 10.113281 107.816406 10.113281 C 107.449219 10.113281 107.097656 10.042969 106.761719 9.90625 C 106.421875 9.765625 106.125 9.566406 105.867188 9.308594 C 105.609375 9.046875 105.410156 8.75 105.269531 8.410156 C 105.128906 8.074219 105.058594 7.722656 105.058594 7.355469 C 105.058594 6.992188 105.128906 6.636719 105.269531 6.300781 C 105.410156 5.960938 105.609375 5.664062 105.867188 5.40625 C 106.125 5.148438 106.421875 4.949219 106.761719 4.808594 C 107.097656 4.667969 107.449219 4.597656 107.816406 4.597656 C 108.179688 4.597656 108.53125 4.667969 108.867188 4.808594 C 109.207031 4.949219 109.503906 5.148438 109.761719 5.40625 C 110.019531 5.664062 110.21875 5.960938 110.359375 6.300781 C 110.5 6.636719 110.570312 6.992188 110.570312 7.355469 Z M 110.570312 7.355469 " fill-opacity="1" fill-rule="nonzero"/><path fill="#ffffff" d="M 120.796875 7.355469 C 120.796875 7.722656 120.726562 8.074219 120.585938 8.410156 C 120.445312 8.75 120.246094 9.046875 119.988281 9.308594 C 119.730469 9.566406 119.433594 9.765625 119.09375 9.90625 C 118.757812 10.042969 118.40625 10.113281 118.039062 10.113281 C 117.675781 10.113281 117.324219 10.042969 116.984375 9.90625 C 116.648438 9.765625 116.351562 9.566406 116.09375 9.308594 C 115.832031 9.046875 115.632812 8.75 115.496094 8.410156 C 115.355469 8.074219 115.285156 7.722656 115.285156 7.355469 C 115.285156 6.992188 115.355469 6.636719 115.496094 6.300781 C 115.632812 5.960938 115.832031 5.664062 116.09375 5.40625 C 116.351562 5.148438 116.648438 4.949219 116.984375 4.808594 C 117.324219 4.667969 117.675781 4.597656 118.039062 4.597656 C 118.40625 4.597656 118.757812 4.667969 119.09375 4.808594 C 119.433594 4.949219 119.730469 5.148438 119.988281 5.40625 C 120.246094 5.664062 120.445312 5.960938 120.585938 6.300781 C 120.726562 6.636719 120.796875 6.992188 120.796875 7.355469 Z M 120.796875 7.355469 " fill-opacity="1" fill-rule="nonzero"/><path fill="#ffffff" d="M 131.011719 7.355469 C 131.011719 7.722656 130.941406 8.074219 130.804688 8.410156 C 130.664062 8.75 130.464844 9.046875 130.207031 9.308594 C 129.949219 9.566406 129.648438 9.765625 129.3125 9.90625 C 128.972656 10.042969 128.621094 10.113281 128.257812 10.113281 C 127.890625 10.113281 127.539062 10.042969 127.203125 9.90625 C 126.867188 9.765625 126.566406 9.566406 126.308594 9.308594 C 126.050781 9.046875 125.851562 8.75 125.710938 8.410156 C 125.574219 8.074219 125.503906 7.722656 125.503906 7.355469 C 125.503906 6.992188 125.574219 6.636719 125.710938 6.300781 C 125.851562 5.960938 126.050781 5.664062 126.308594 5.40625 C 126.566406 5.148438 126.867188 4.949219 127.203125 4.808594 C 127.539062 4.667969 127.890625 4.597656 128.257812 4.597656 C 128.621094 4.597656 128.972656 4.667969 129.3125 4.808594 C 129.648438 4.949219 129.949219 5.148438 130.207031 5.40625 C 130.464844 5.664062 130.664062 5.960938 130.804688 6.300781 C 130.941406 6.636719 131.011719 6.992188 131.011719 7.355469 Z M 131.011719 7.355469 " fill-opacity="1" fill-rule="nonzero"/><path fill="#ffe69a" d="M 125.503906 26.445312 C 125.503906 26.933594 125.453125 27.421875 125.359375 27.902344 C 125.261719 28.382812 125.121094 28.851562 124.933594 29.304688 C 124.746094 29.757812 124.515625 30.1875 124.246094 30.597656 C 123.972656 31.003906 123.664062 31.382812 123.316406 31.726562 C 122.96875 32.074219 122.59375 32.382812 122.1875 32.65625 C 121.777344 32.929688 121.347656 33.160156 120.894531 33.347656 C 120.441406 33.535156 119.976562 33.675781 119.496094 33.773438 C 119.015625 33.867188 118.53125 33.917969 118.039062 33.917969 C 117.550781 33.917969 117.066406 33.867188 116.585938 33.773438 C 116.105469 33.675781 115.636719 33.535156 115.183594 33.347656 C 114.730469 33.160156 114.300781 32.929688 113.894531 32.65625 C 113.488281 32.382812 113.109375 32.074219 112.761719 31.726562 C 112.417969 31.382812 112.109375 31.003906 111.835938 30.597656 C 111.5625 30.1875 111.332031 29.757812 111.144531 29.304688 C 110.957031 28.851562 110.816406 28.382812 110.722656 27.902344 C 110.625 27.421875 110.578125 26.933594 110.578125 26.445312 C 110.578125 25.953125 110.625 25.46875 110.722656 24.988281 C 110.816406 24.507812 110.957031 24.039062 111.144531 23.585938 C 111.332031 23.132812 111.5625 22.703125 111.835938 22.292969 C 112.109375 21.886719 112.417969 21.507812 112.761719 21.160156 C 113.109375 20.816406 113.488281 20.503906 113.894531 20.234375 C 114.300781 19.960938 114.730469 19.730469 115.183594 19.542969 C 115.636719 19.355469 116.105469 19.214844 116.585938 19.117188 C 117.066406 19.023438 117.550781 18.972656 118.039062 18.972656 C 118.53125 18.972656 119.015625 19.023438 119.496094 19.117188 C 119.976562 19.214844 120.441406 19.355469 120.894531 19.542969 C 121.347656 19.730469 121.777344 19.960938 122.1875 20.234375 C 122.59375 20.503906 122.96875 20.816406 123.316406 21.160156 C 123.664062 21.507812 123.972656 21.886719 124.246094 22.292969 C 124.515625 22.703125 124.746094 23.132812 124.933594 23.585938 C 125.121094 24.039062 125.261719 24.507812 125.359375 24.988281 C 125.453125 25.46875 125.503906 25.953125 125.503906 26.445312 Z M 125.503906 26.445312 " fill-opacity="1" fill-rule="nonzero"/><path fill="#ff5d5d" d="M 95.0625 14.054688 L 355.082031 14.054688 L 355.082031 16.566406 L 95.0625 16.566406 Z M 95.0625 14.054688 " fill-opacity="0.1294" fill-rule="nonzero"/><path fill="#292929" d="M 120.796875 24.851562 C 120.796875 26.378906 119.558594 27.609375 118.039062 27.609375 C 116.515625 27.609375 115.285156 26.371094 115.285156 24.851562 C 115.285156 23.324219 116.523438 22.09375 118.039062 22.09375 C 119.566406 22.09375 120.796875 23.324219 120.796875 24.851562 Z M 118.039062 29.375 C 115.179688 29.375 112.867188 30.394531 112.867188 31.648438 C 112.867188 32.90625 115.1875 33.925781 118.039062 33.925781 C 120.894531 33.925781 123.214844 32.90625 123.214844 31.648438 C 123.214844 30.394531 120.902344 29.375 118.039062 29.375 Z M 118.039062 29.375 " fill-opacity="1" fill-rule="nonzero"/><path fill="#ff5d5d" d="M 355.082031 16.667969 L 355.082031 139.71875 L 349.804688 139.71875 L 349.804688 20.671875 C 349.804688 14.875 344.6875 15.699219 344.6875 15.699219 L 200.265625 15.3125 L 94.851562 15.3125 L 94.941406 14.949219 C 94.996094 14.277344 95.800781 14.054688 95.800781 14.054688 L 339.578125 14.054688 C 346.636719 14.054688 346.761719 11.191406 345.195312 8.382812 C 343.339844 5.074219 339.808594 3.046875 336.019531 3.03125 L 157.710938 2.300781 L 103.78125 2.300781 C 106.617188 0.507812 109.453125 0.558594 109.453125 0.558594 C 109.453125 0.558594 331.738281 0.65625 335.953125 0.65625 C 340.167969 0.65625 344.53125 1.46875 344.53125 1.46875 C 355.804688 6.207031 355.082031 16.667969 355.082031 16.667969 Z M 355.082031 16.667969 " fill-opacity="0.3569" fill-rule="nonzero"/><path stroke-linecap="round" transform="matrix(0.0820022, 0, 0, 0.0821016, 64.238507, -0.000000000000085265)" fill="none" stroke-linejoin="round" d="M 568.293607 7.993148 L 3351.802509 7.993148 C 3459.507292 7.993148 3546.776272 95.299254 3546.776272 203.016433 L 3546.776272 1974.688083 C 3546.776272 2082.405263 3459.507292 2169.711369 3351.802509 2169.711369 L 568.293607 2169.711369 C 460.588824 2169.711369 373.319844 2082.405263 373.319844 1974.688083 L 373.319844 203.016433 C 373.319844 95.299254 460.588824 7.993148 568.293607 7.993148 Z M 375.892183 171.186578 L 3542.107954 171.186578 M 531.423416 55.999611 C 512.797777 55.999611 497.792466 71.08192 497.792466 89.589863 C 497.792466 108.097806 512.893049 123.180114 531.423416 123.180114 C 550.001419 123.180114 565.00673 108.097806 565.00673 89.589863 C 565.102002 70.986763 550.001419 55.999611 531.423416 55.999611 Z M 656.086582 55.999611 C 637.508579 55.999611 622.503269 71.08192 622.503269 89.589863 C 622.503269 108.097806 637.603851 123.180114 656.086582 123.180114 C 674.712222 123.180114 689.717532 108.097806 689.717532 89.589863 C 689.717532 70.986763 674.712222 55.999611 656.086582 55.999611 Z M 780.702113 55.999611 C 762.076473 55.999611 747.118799 71.08192 747.118799 89.589863 C 747.118799 108.097806 762.219381 123.180114 780.702113 123.180114 C 799.280116 123.180114 814.285427 108.097806 814.285427 89.589863 C 814.380698 70.986763 799.280116 55.999611 780.702113 55.999611 Z M 656.086582 231.087607 C 605.783066 231.087607 565.102002 271.814597 565.102002 322.104817 C 565.102002 372.395037 605.783066 413.122027 656.086582 413.122027 C 706.390099 413.122027 747.118799 372.395037 747.118799 322.104817 C 747.118799 271.814597 706.294827 231.087607 656.086582 231.087607 Z M 866.923103 269.197792 L 1194.801044 269.197792 M 866.923103 333.380865 L 915.178276 333.380865 M 2741.777095 336.378295 L 2792.22352 336.378295 M 2448.578093 336.378295 L 2498.976882 336.378295 M 2596.821033 274.098353 L 2793.176238 274.098353 M 3035.119005 336.378295 L 3085.517794 336.378295 M 2891.59202 274.098353 L 3087.994861 274.098353 M 2297.81045 274.098353 L 2502.692482 274.098353 M 3285.922051 293.082079 L 3326.412571 251.784149 M 3326.412571 293.082079 L 3285.922051 251.784149 " stroke="#292929" stroke-width="16" stroke-opacity="1" stroke-miterlimit="4"/><path fill="#ffe69a" d="M 77.398438 52.296875 L 152.5625 52.296875 C 155.398438 52.296875 157.703125 54.605469 157.703125 57.445312 L 157.703125 87.445312 C 157.703125 90.285156 155.398438 92.59375 152.5625 92.59375 L 77.398438 92.59375 C 74.5625 92.59375 72.257812 90.285156 72.257812 87.445312 L 72.257812 57.445312 C 72.257812 54.605469 74.5625 52.296875 77.398438 52.296875 Z M 77.398438 52.296875 " fill-opacity="0.1294" fill-rule="nonzero"/><path fill="#ffe69a" d="M 145.09375 82.273438 L 82.066406 82.273438 C 81.925781 82.273438 81.820312 82.167969 81.820312 82.027344 C 81.820312 81.886719 81.925781 81.78125 82.066406 81.78125 L 145.09375 81.78125 C 145.230469 81.78125 145.339844 81.886719 145.339844 82.027344 C 145.339844 82.167969 145.230469 82.273438 145.09375 82.273438 Z M 145.09375 72.914062 L 82.066406 72.914062 C 81.925781 72.914062 81.820312 72.808594 81.820312 72.667969 C 81.820312 72.527344 81.925781 72.421875 82.066406 72.421875 L 145.09375 72.421875 C 145.230469 72.421875 145.339844 72.527344 145.339844 72.667969 C 145.339844 72.808594 145.230469 72.914062 145.09375 72.914062 Z M 145.09375 62.652344 L 82.066406 62.652344 C 81.925781 62.652344 81.820312 62.546875 81.820312 62.40625 C 81.820312 62.265625 81.925781 62.160156 82.066406 62.160156 L 145.09375 62.160156 C 145.230469 62.160156 145.339844 62.265625 145.339844 62.40625 C 145.339844 62.546875 145.230469 62.652344 145.09375 62.652344 Z M 145.09375 62.652344 " fill-opacity="0.3569" fill-rule="nonzero"/><path stroke-linecap="round" transform="matrix(0.0820022, 0, 0, 0.0821016, 64.238507, -0.000000000000085265)" fill="none" stroke-linejoin="round" d="M 97.793763 1063.278944 L 97.793763 701.493858 C 97.793763 665.90532 126.708758 636.977739 162.29278 636.977739 L 1075.377828 636.977739 C 1111.009486 636.977739 1139.876845 665.90532 1139.876845 701.493858 L 1139.876845 1063.278944 C 1139.876845 1098.91506 1111.009486 1127.795064 1075.377828 1127.795064 L 162.29278 1127.795064 C 126.708758 1127.795064 97.793763 1098.91506 97.793763 1063.278944 Z M 196.876448 1057.902601 C 196.876448 1057.902601 269.283025 891.521427 431.721465 946.902521 C 531.518688 980.920977 595.207894 932.295995 627.981398 865.591276 C 685.382665 748.881805 757.312883 803.311334 824.193695 823.10389 C 893.503938 843.61012 983.20235 819.392786 1009.402098 709.677319 " stroke="#292929" stroke-width="14.645001" stroke-opacity="1" stroke-miterlimit="4"/><path fill="#ff5d5d" d="M 332.925781 139.71875 L 373.273438 139.71875 C 376.960938 139.71875 379.945312 142.707031 379.945312 146.402344 L 379.945312 193.578125 C 379.945312 197.273438 376.960938 200.261719 373.273438 200.261719 L 332.925781 200.261719 C 329.238281 200.261719 326.253906 197.273438 326.253906 193.578125 L 326.253906 146.402344 C 326.253906 142.71875 329.238281 139.71875 332.925781 139.71875 Z M 332.925781 139.71875 " fill-opacity="0.1294" fill-rule="nonzero"/><path fill="#ff5d5d" d="M 372.246094 191.585938 L 333.5 191.585938 C 333.363281 191.585938 333.253906 191.476562 333.253906 191.335938 C 333.253906 191.199219 333.363281 191.089844 333.5 191.089844 L 372.246094 191.089844 C 372.386719 191.089844 372.492188 191.199219 372.492188 191.335938 C 372.492188 191.476562 372.386719 191.585938 372.246094 191.585938 Z M 372.246094 180.851562 L 333.5 180.851562 C 333.363281 180.851562 333.253906 180.746094 333.253906 180.605469 C 333.253906 180.46875 333.363281 180.359375 333.5 180.359375 L 372.246094 180.359375 C 372.386719 180.359375 372.492188 180.46875 372.492188 180.605469 C 372.492188 180.746094 372.386719 180.851562 372.246094 180.851562 Z M 372.246094 170.351562 L 333.5 170.351562 C 333.363281 170.351562 333.253906 170.246094 333.253906 170.105469 C 333.253906 169.964844 333.363281 169.859375 333.5 169.859375 L 372.246094 169.859375 C 372.386719 169.859375 372.492188 169.964844 372.492188 170.105469 C 372.492188 170.246094 372.386719 170.351562 372.246094 170.351562 Z M 372.246094 160.992188 L 333.5 160.992188 C 333.363281 160.992188 333.253906 160.886719 333.253906 160.746094 C 333.253906 160.605469 333.363281 160.5 333.5 160.5 L 372.246094 160.5 C 372.386719 160.5 372.492188 160.605469 372.492188 160.746094 C 372.492188 160.886719 372.386719 160.992188 372.246094 160.992188 Z M 372.246094 150.730469 L 333.5 150.730469 C 333.363281 150.730469 333.253906 150.625 333.253906 150.484375 C 333.253906 150.34375 333.363281 150.238281 333.5 150.238281 L 372.246094 150.238281 C 372.386719 150.238281 372.492188 150.34375 372.492188 150.484375 C 372.492188 150.625 372.386719 150.730469 372.246094 150.730469 Z M 372.246094 150.730469 " fill-opacity="0.3569" fill-rule="nonzero"/><path fill="#ff5d5d" d="M 362.367188 158.703125 L 362.367188 191.335938 L 371.558594 191.386719 L 371.617188 158.703125 Z M 348.179688 167.28125 L 348.179688 191.328125 L 357.371094 191.378906 L 357.429688 167.28125 Z M 334 152.035156 L 334 191.335938 L 341.355469 191.378906 L 343.195312 191.386719 L 343.25 152.042969 L 334 152.042969 Z M 334 152.035156 " fill-opacity="1" fill-rule="nonzero"/><path fill="#ffffff" d="M 343.25 152.035156 L 343.25 153.332031 L 343.234375 153.390625 L 337.476562 153.390625 C 337.476562 153.390625 335.953125 153.5625 335.894531 156.042969 C 335.839844 158.414062 335.886719 188.570312 335.886719 191.371094 L 334.050781 191.378906 L 333.992188 152.035156 Z M 348.179688 167.28125 L 348.238281 191.378906 L 350.074219 191.371094 C 350.066406 188.570312 350.023438 173.660156 350.082031 171.289062 C 350.140625 168.800781 351.664062 168.636719 351.664062 168.636719 L 357.421875 168.636719 L 357.4375 167.28125 Z M 362.367188 158.734375 L 362.421875 191.378906 L 364.261719 191.371094 C 364.25 188.570312 364.210938 165.113281 364.269531 162.742188 C 364.324219 160.253906 365.851562 160.089844 365.851562 160.089844 L 371.609375 160.089844 L 371.625 158.734375 Z M 362.367188 158.734375 " fill-opacity="1" fill-rule="nonzero"/><g clip-path="url(#id1)"><path stroke-linecap="round" transform="matrix(0.0820022, 0, 0, 0.0821016, 64.238507, -0.000000000000085265)" fill="none" stroke-linejoin="round" d="M 3195.413829 2359.12042 L 3195.413829 1782.091289 C 3195.413829 1737.795929 3231.283666 1701.921922 3275.585059 1701.921922 L 3769.807585 1701.921922 C 3814.108978 1701.921922 3849.978815 1737.795929 3849.978815 1782.091289 L 3849.978815 2359.12042 C 3849.978815 2403.41578 3814.108978 2439.289788 3769.807585 2439.289788 L 3275.585059 2439.289788 C 3231.283666 2439.289788 3195.413829 2403.41578 3195.413829 2359.12042 Z M 3401.82021 1851.793439 L 3290.399826 1851.793439 L 3290.399826 2330.478308 L 3401.82021 2330.478308 Z M 3574.786185 2037.491386 L 3463.413437 2037.491386 L 3463.413437 2330.383152 L 3574.786185 2330.383152 Z M 3747.799796 1933.009528 L 3636.379412 1933.009528 L 3636.379412 2330.478308 L 3747.799796 2330.478308 Z M 3747.799796 1933.009528 " stroke="#292929" stroke-width="14.645001" stroke-opacity="1" stroke-miterlimit="4"/></g><g clip-path="url(#id2)"><path fill="#292929" d="M 175.628906 285.730469 C 169.957031 282.167969 147.488281 279.5 120.632812 279.5 C 89.488281 279.507812 64.238281 283.085938 64.238281 287.503906 C 64.238281 291.921875 89.488281 295.5 120.625 295.5 C 144.167969 295.5 164.339844 293.457031 172.777344 290.550781 C 177.703125 288.785156 178.082031 287.503906 175.628906 285.730469 Z M 175.628906 285.730469 " fill-opacity="0.2" fill-rule="nonzero"/></g><path fill="#ffffff" d="M 159.761719 144.34375 C 159.605469 144.398438 159.441406 144.441406 159.277344 144.457031 C 159.222656 144.457031 159.164062 144.472656 159.113281 144.492188 C 158.828125 144.375 158.320312 143.382812 158.074219 142.898438 C 157.8125 142.378906 157.566406 141.886719 157.285156 141.566406 C 156.820312 141.007812 156.210938 140.828125 155.664062 141.074219 C 154.835938 141.453125 154.507812 142.652344 154.753906 144.367188 C 154.785156 144.5625 154.808594 144.746094 154.84375 144.925781 C 155.089844 146.429688 155.144531 146.789062 152.226562 147.570312 C 152.449219 145.945312 152.09375 143.703125 151.078125 142.273438 C 151.070312 142.265625 151.0625 142.257812 151.0625 142.25 C 151.167969 141.667969 151.21875 141.074219 151.21875 140.484375 C 154.507812 137.503906 157.738281 139.089844 158.433594 139.5 C 158.246094 140.105469 158.542969 140.96875 159.097656 142.460938 C 159.328125 143.070312 159.558594 143.695312 159.722656 144.277344 C 159.746094 144.292969 159.753906 144.316406 159.761719 144.34375 Z M 159.761719 144.34375 " fill-opacity="1" fill-rule="nonzero"/><path fill="#ffffff" d="M 149.988281 143.046875 C 149.167969 141.894531 147.421875 140.707031 145.207031 140.707031 C 143.992188 140.707031 142.640625 141.058594 141.230469 141.96875 C 139.550781 143.054688 138.867188 145.460938 138.804688 147.191406 C 138.746094 148.503906 139.015625 149.210938 139.15625 149.382812 C 139.476562 149.367188 146.011719 149.039062 150.800781 147.921875 C 151.167969 146.691406 150.90625 144.335938 149.988281 143.046875 Z M 148.183594 142.839844 C 147.660156 144.367188 146.378906 146.699219 146.324219 146.796875 C 146.199219 147.011719 145.976562 147.140625 145.730469 147.140625 C 145.667969 147.140625 145.601562 147.132812 145.535156 147.117188 L 143.296875 146.445312 C 142.945312 146.335938 142.738281 145.960938 142.847656 145.605469 C 142.953125 145.253906 143.328125 145.050781 143.683594 145.15625 L 145.386719 145.671875 C 145.789062 144.917969 146.542969 143.429688 146.898438 142.40625 C 147.019531 142.050781 147.398438 141.863281 147.75 141.988281 C 148.117188 142.101562 148.308594 142.488281 148.183594 142.839844 Z M 148.183594 142.839844 " fill-opacity="1" fill-rule="nonzero"/><path fill="#ffc1c8" d="M 187.292969 74.054688 C 186.839844 74.402344 186.445312 74.6875 186.101562 74.941406 C 184.542969 76.082031 183.839844 76.609375 183.476562 77.832031 C 183.421875 78.03125 177.507812 97.691406 172.507812 104.546875 C 169.054688 109.277344 166.011719 112.019531 164.550781 113.203125 C 163.730469 109.082031 160.96875 102.667969 160.199219 100.945312 C 161.027344 100.082031 163.320312 97.636719 165.757812 94.582031 C 168.898438 90.640625 178.425781 75.46875 179.132812 74.308594 C 179.5 73.710938 179.664062 72.617188 179.871094 71.238281 C 180.199219 69.070312 180.609375 66.378906 181.871094 64.859375 C 183.945312 62.363281 187.109375 61.421875 188.660156 61.246094 C 188.398438 61.519531 188.109375 61.765625 187.808594 61.988281 C 183.8125 64.941406 183.011719 67.765625 185.183594 71.140625 C 185.183594 71.148438 185.191406 71.15625 185.199219 71.164062 C 185.214844 71.183594 185.222656 71.207031 185.242188 71.222656 C 185.257812 71.238281 185.273438 71.257812 185.289062 71.273438 C 185.304688 71.289062 185.324219 71.296875 185.339844 71.3125 C 185.355469 71.328125 185.378906 71.347656 185.398438 71.355469 C 185.414062 71.363281 185.429688 71.371094 185.445312 71.378906 C 185.46875 71.386719 185.488281 71.402344 185.511719 71.410156 C 185.527344 71.421875 185.550781 71.429688 185.570312 71.429688 C 185.59375 71.4375 185.617188 71.4375 185.632812 71.445312 L 185.691406 71.453125 C 185.714844 71.453125 185.742188 71.453125 185.765625 71.453125 C 185.78125 71.453125 185.808594 71.453125 185.824219 71.445312 C 185.847656 71.445312 185.871094 71.4375 185.898438 71.4375 C 185.90625 71.4375 185.914062 71.4375 185.921875 71.429688 C 187.4375 71.027344 188.921875 69.859375 188.988281 69.8125 C 189.046875 69.769531 189.085938 69.710938 189.128906 69.65625 C 190.324219 67.855469 190.996094 67.773438 191.0625 67.773438 C 191.085938 67.765625 191.113281 67.773438 191.136719 67.792969 C 191.195312 68.660156 189.382812 72.472656 187.292969 74.054688 Z M 163.042969 145.535156 C 162.953125 144.703125 162.738281 143.898438 162.402344 143.136719 C 161.542969 141.183594 160.214844 140.039062 159.730469 139.941406 C 159.753906 140.328125 160.117188 141.304688 160.371094 141.976562 C 160.550781 142.460938 160.730469 142.957031 160.894531 143.449219 C 161.238281 143.316406 161.625 143.496094 161.753906 143.84375 C 161.828125 144.039062 161.804688 144.253906 161.699219 144.433594 C 161.015625 145.542969 159.8125 145.761719 159.460938 145.804688 C 158.222656 146.15625 157.484375 144.695312 156.882812 143.511719 C 156.671875 143.085938 156.449219 142.644531 156.269531 142.4375 C 156.246094 142.414062 156.21875 142.390625 156.195312 142.363281 C 156.097656 142.554688 155.941406 143.085938 156.097656 144.171875 C 156.121094 144.359375 156.15625 144.539062 156.179688 144.703125 C 156.589844 147.222656 156.179688 147.988281 151.464844 149.152344 C 151.464844 149.152344 151.457031 149.152344 151.457031 149.152344 C 146.535156 150.367188 139.820312 150.707031 139.238281 150.730469 C 139.1875 150.738281 139.140625 150.738281 139.089844 150.738281 C 138.730469 150.738281 138.140625 150.574219 137.769531 149.613281 C 137.3125 148.421875 137.292969 146.207031 138.015625 144.195312 C 137.628906 143.359375 137.375 142.460938 137.253906 141.550781 L 128.929688 142.945312 L 122.492188 144.023438 C 122.789062 145.261719 124.5 152.421875 126.59375 159.648438 C 126.996094 161.042969 127.914062 161.9375 129.390625 162.371094 C 137.449219 164.738281 158.730469 152.503906 160.976562 150.542969 C 162.820312 148.933594 163.199219 147.09375 163.042969 145.535156 Z M 149.734375 83.957031 C 150.421875 83.792969 150.9375 83.128906 150.890625 82.816406 C 150.800781 82.316406 150.390625 81.402344 150.019531 80.589844 C 149.691406 79.875 149.390625 79.203125 149.257812 78.71875 C 148.996094 77.742188 148.890625 76.648438 148.789062 75.589844 C 148.660156 74.203125 148.535156 72.898438 148.085938 72.011719 C 147.789062 71.429688 147.59375 71.074219 147.40625 70.714844 C 147.339844 70.597656 147.28125 70.484375 147.214844 70.359375 C 141.976562 73.605469 141.371094 79.375 140.96875 83.300781 C 140.738281 85.492188 140.589844 86.9375 139.613281 87.363281 C 137.738281 88.183594 136.679688 85.925781 135.835938 84.105469 C 135.621094 83.652344 135.425781 83.226562 135.226562 82.855469 C 134.890625 82.226562 134.144531 81.214844 133.015625 81.585938 C 132.316406 81.8125 131.660156 82.480469 131.175781 83.503906 C 131.167969 83.53125 131.167969 83.554688 131.160156 83.585938 C 131.152344 83.613281 130.480469 85.871094 131.242188 87.414062 C 132.039062 89.015625 133.875 88.5625 133.957031 88.539062 C 134.308594 88.429688 134.6875 88.636719 134.792969 89 C 134.898438 89.351562 134.695312 89.730469 134.335938 89.835938 C 134.316406 89.835938 134.308594 89.84375 134.292969 89.84375 C 133.972656 89.925781 133.652344 89.957031 133.324219 89.957031 C 132.40625 89.957031 131.257812 89.671875 130.464844 88.679688 C 130.480469 88.925781 130.511719 89.179688 130.546875 89.433594 C 130.90625 92.167969 130.429688 94.082031 129.117188 95.140625 C 127.804688 96.199219 126.027344 96.050781 124.96875 95.835938 C 124.953125 96.585938 124.910156 97.265625 124.863281 97.875 C 128.742188 98.957031 138.34375 101.8125 139.3125 102.914062 C 139.417969 103.039062 139.542969 103.195312 139.65625 103.347656 C 139.714844 102.898438 139.753906 102.378906 139.789062 101.832031 C 139.851562 100.515625 139.84375 99.015625 139.796875 97.839844 C 138.066406 98.054688 137.121094 98.078125 137.054688 98.078125 L 137.039062 98.078125 C 136.671875 98.085938 136.367188 97.78125 136.359375 97.414062 C 136.351562 97.042969 136.65625 96.742188 137.023438 96.730469 C 137.046875 96.730469 139.261719 96.675781 143.140625 95.96875 C 146.855469 95.296875 149.144531 93.800781 149.683594 88.734375 C 149.332031 88.851562 148.953125 88.914062 148.585938 88.90625 C 148.308594 88.90625 148.019531 88.882812 147.742188 88.832031 C 147.371094 88.777344 147.125 88.429688 147.183594 88.0625 C 147.242188 87.691406 147.585938 87.445312 147.953125 87.503906 C 149.265625 87.726562 149.683594 87.226562 149.785156 87.058594 C 149.800781 86.503906 149.800781 85.910156 149.785156 85.289062 C 149.414062 85.230469 149.167969 84.875 149.234375 84.507812 C 149.265625 84.234375 149.472656 84.023438 149.734375 83.957031 Z M 149.734375 83.957031 " fill-opacity="1" fill-rule="nonzero"/><path fill="#ff5d5d" d="M 150.039062 65.132812 C 150.054688 66.574219 149.339844 67.808594 148.160156 68.332031 C 140.804688 71.660156 140.058594 78.867188 139.613281 83.167969 C 139.582031 83.496094 139.542969 83.851562 139.5 84.203125 C 139.394531 85.105469 139.253906 85.976562 139.058594 86.132812 C 138.425781 86.402344 137.769531 85.121094 137.03125 83.539062 C 136.828125 83.09375 136.605469 82.628906 136.390625 82.214844 C 135.5 80.558594 134.039062 79.828125 132.578125 80.304688 C 130.375 81.019531 128.511719 84.441406 129.191406 89.605469 C 129.488281 91.839844 129.175781 93.339844 128.257812 94.082031 C 127.25 94.894531 125.691406 94.636719 124.9375 94.449219 C 124.855469 91.363281 124.265625 87.636719 122.320312 84.574219 C 118.464844 78.496094 118.121094 72.117188 121.402344 67.503906 C 123.007812 65.238281 126.011719 63.25 129.601562 61.886719 C 135.164062 59.785156 142.148438 59.203125 147.570312 61.476562 C 149.046875 62.09375 150.019531 63.53125 150.039062 65.132812 Z M 150.039062 65.132812 " fill-opacity="1" fill-rule="nonzero"/><path fill="#ff5d5d" d="M 313.492188 59.484375 L 313.492188 73.5625 C 313.492188 76.394531 311.195312 78.695312 308.367188 78.695312 L 308.359375 78.695312 L 215.679688 78.503906 C 212.851562 78.503906 210.554688 76.207031 210.554688 73.375 L 210.554688 59.292969 C 210.554688 56.460938 212.851562 54.164062 215.679688 54.164062 L 308.171875 53.324219 C 311 53.324219 313.492188 56.648438 313.492188 59.484375 Z M 307.507812 85.460938 L 215.6875 86 C 212.859375 86 210.5625 88.300781 210.5625 91.132812 L 210.5625 105.222656 C 210.5625 108.054688 212.859375 110.351562 215.6875 110.351562 L 308.367188 110.542969 L 308.375 110.542969 C 311.203125 110.542969 313.5 108.242188 313.5 105.410156 L 313.5 91.320312 C 313.492188 88.496094 310.335938 85.460938 307.507812 85.460938 Z M 307.507812 85.460938 " fill-opacity="1" fill-rule="nonzero"/><path fill="#ffe69a" d="M 308.464844 117.003906 L 215.6875 117.855469 C 212.859375 117.855469 210.5625 120.15625 210.5625 122.988281 L 210.5625 137.078125 C 210.5625 139.910156 212.859375 142.207031 215.6875 142.207031 L 308.367188 142.398438 L 308.375 142.398438 C 311.203125 142.398438 313.5 140.097656 313.5 137.265625 L 313.5 123.175781 C 313.492188 120.34375 311.285156 117.003906 308.464844 117.003906 Z M 308.464844 117.003906 " fill-opacity="1" fill-rule="nonzero"/><path fill="#292929" d="M 228.167969 66.339844 C 228.167969 69.8125 225.355469 72.617188 221.894531 72.617188 C 218.433594 72.617188 215.621094 69.804688 215.621094 66.339844 C 215.621094 62.863281 218.433594 60.058594 221.894531 60.058594 C 225.363281 60.058594 228.167969 62.863281 228.167969 66.339844 Z M 221.894531 91.894531 C 218.425781 91.894531 215.621094 94.703125 215.621094 98.175781 C 215.621094 101.648438 218.425781 104.457031 221.894531 104.457031 C 225.363281 104.457031 228.167969 101.648438 228.167969 98.175781 C 228.167969 94.710938 225.355469 91.90625 221.894531 91.894531 Z M 221.894531 91.894531 " fill-opacity="1" fill-rule="nonzero"/><path fill="#292929" d="M 251.605469 127.050781 C 252.007812 126.796875 252.484375 126.65625 252.957031 126.667969 C 253.230469 126.667969 253.5 126.707031 253.761719 126.78125 C 254 126.855469 254.230469 126.96875 254.425781 127.125 C 254.625 127.28125 254.785156 127.472656 254.917969 127.683594 C 255.058594 127.914062 255.148438 128.167969 255.1875 128.429688 L 256.902344 128.429688 C 256.84375 127.9375 256.691406 127.472656 256.460938 127.035156 C 256.238281 126.640625 255.941406 126.289062 255.589844 126 C 255.230469 125.714844 254.828125 125.5 254.394531 125.359375 C 253.925781 125.214844 253.433594 125.140625 252.941406 125.140625 C 252.171875 125.121094 251.417969 125.328125 250.746094 125.714844 C 250.089844 126.109375 249.554688 126.683594 249.210938 127.363281 C 248.832031 128.085938 248.644531 128.949219 248.644531 129.957031 C 248.644531 130.96875 248.832031 131.832031 249.203125 132.554688 C 249.539062 133.242188 250.070312 133.808594 250.726562 134.203125 C 251.398438 134.589844 252.15625 134.785156 252.933594 134.777344 C 253.449219 134.785156 253.96875 134.703125 254.460938 134.53125 C 254.902344 134.375 255.304688 134.136719 255.65625 133.832031 C 256.335938 133.25 256.773438 132.4375 256.902344 131.550781 L 255.1875 131.542969 C 255.140625 131.804688 255.050781 132.050781 254.910156 132.273438 C 254.777344 132.480469 254.605469 132.667969 254.410156 132.816406 C 254.214844 132.964844 253.984375 133.078125 253.746094 133.144531 C 253.492188 133.21875 253.222656 133.257812 252.957031 133.257812 C 252.484375 133.265625 252.015625 133.136719 251.613281 132.890625 C 251.203125 132.617188 250.882812 132.234375 250.6875 131.78125 C 250.464844 131.289062 250.351562 130.6875 250.351562 129.964844 C 250.351562 129.261719 250.464844 128.660156 250.6875 128.175781 C 250.875 127.71875 251.195312 127.332031 251.605469 127.050781 Z M 251.605469 127.050781 " fill-opacity="1" fill-rule="nonzero"/><path fill="#292929" d="M 263.445312 127.832031 C 263.054688 127.617188 262.617188 127.511719 262.167969 127.527344 C 261.632812 127.527344 261.191406 127.644531 260.847656 127.875 C 260.503906 128.101562 260.230469 128.429688 260.085938 128.816406 L 260.003906 128.816406 L 260.003906 125.277344 L 258.386719 125.277344 L 258.386719 134.648438 L 260.042969 134.648438 L 260.042969 130.523438 C 260.035156 130.222656 260.101562 129.925781 260.238281 129.664062 C 260.363281 129.433594 260.550781 129.246094 260.78125 129.113281 C 261.019531 128.980469 261.289062 128.914062 261.570312 128.925781 C 262.003906 128.925781 262.347656 129.054688 262.585938 129.316406 C 262.832031 129.582031 262.945312 129.949219 262.945312 130.425781 L 262.945312 134.648438 L 264.601562 134.648438 L 264.601562 130.171875 C 264.601562 129.605469 264.503906 129.121094 264.300781 128.726562 C 264.109375 128.359375 263.816406 128.039062 263.445312 127.832031 Z M 263.445312 127.832031 " fill-opacity="1" fill-rule="nonzero"/><path fill="#292929" d="M 271.546875 128.382812 C 271.261719 128.09375 270.910156 127.875 270.523438 127.742188 C 270.128906 127.601562 269.710938 127.527344 269.292969 127.535156 C 268.621094 127.535156 268.039062 127.691406 267.539062 127.996094 C 267.039062 128.308594 266.636719 128.75 266.382812 129.277344 C 266.101562 129.828125 265.972656 130.460938 265.972656 131.183594 C 265.972656 131.921875 266.113281 132.554688 266.382812 133.09375 C 266.644531 133.621094 267.054688 134.054688 267.5625 134.351562 C 268.070312 134.648438 268.679688 134.792969 269.382812 134.792969 C 269.875 134.800781 270.375 134.71875 270.835938 134.546875 C 271.238281 134.398438 271.589844 134.152344 271.875 133.84375 C 272.148438 133.539062 272.34375 133.167969 272.433594 132.773438 L 270.890625 132.601562 C 270.828125 132.792969 270.710938 132.964844 270.5625 133.101562 C 270.417969 133.242188 270.246094 133.339844 270.054688 133.40625 C 269.84375 133.480469 269.621094 133.511719 269.398438 133.511719 C 269.070312 133.523438 268.742188 133.441406 268.457031 133.285156 C 268.1875 133.128906 267.964844 132.898438 267.832031 132.617188 C 267.6875 132.308594 267.605469 131.960938 267.613281 131.609375 L 272.5 131.609375 L 272.5 131.101562 C 272.507812 130.558594 272.425781 130.015625 272.246094 129.507812 C 272.097656 129.070312 271.859375 128.695312 271.546875 128.382812 Z M 267.621094 130.46875 C 267.636719 130.195312 267.710938 129.933594 267.832031 129.703125 C 267.972656 129.441406 268.179688 129.21875 268.433594 129.0625 C 268.703125 128.898438 269.007812 128.808594 269.324219 128.816406 C 269.621094 128.808594 269.910156 128.882812 270.164062 129.03125 C 270.398438 129.171875 270.597656 129.375 270.71875 129.621094 C 270.859375 129.882812 270.925781 130.171875 270.925781 130.46875 Z M 267.621094 130.46875 " fill-opacity="1" fill-rule="nonzero"/><path fill="#292929" d="M 276.089844 129.136719 C 276.355469 128.957031 276.664062 128.859375 276.984375 128.867188 C 277.386719 128.867188 277.707031 128.980469 277.945312 129.210938 C 278.183594 129.441406 278.347656 129.738281 278.394531 130.058594 L 279.976562 130.058594 C 279.929688 129.097656 279.355469 128.242188 278.476562 127.839844 C 278 127.625 277.484375 127.519531 276.960938 127.527344 C 276.273438 127.527344 275.679688 127.683594 275.179688 127.988281 C 274.679688 128.292969 274.277344 128.742188 274.015625 129.269531 C 273.46875 130.46875 273.46875 131.847656 274.007812 133.046875 C 274.261719 133.570312 274.664062 134.015625 275.164062 134.328125 C 275.664062 134.636719 276.261719 134.785156 276.96875 134.785156 C 277.5 134.800781 278.027344 134.6875 278.503906 134.464844 C 278.921875 134.269531 279.28125 133.957031 279.535156 133.570312 C 279.789062 133.175781 279.945312 132.71875 279.976562 132.25 L 278.394531 132.25 C 278.355469 132.480469 278.265625 132.699219 278.125 132.898438 C 278 133.070312 277.828125 133.210938 277.640625 133.300781 C 277.132812 133.53125 276.542969 133.472656 276.082031 133.160156 C 275.8125 132.957031 275.605469 132.683594 275.492188 132.371094 C 275.34375 131.976562 275.269531 131.558594 275.28125 131.140625 C 275.269531 130.722656 275.34375 130.3125 275.492188 129.925781 C 275.617188 129.605469 275.820312 129.335938 276.089844 129.136719 Z M 276.089844 129.136719 " fill-opacity="1" fill-rule="nonzero"/><path fill="#292929" d="M 285.742188 134.648438 L 287.726562 134.648438 L 284.839844 130.65625 L 287.5625 127.617188 L 285.636719 127.617188 L 283.109375 130.441406 L 282.996094 130.441406 L 282.996094 125.277344 L 281.339844 125.277344 L 281.339844 134.648438 L 282.996094 134.648438 L 282.996094 132.289062 L 283.59375 131.640625 Z M 285.742188 134.648438 " fill-opacity="1" fill-rule="nonzero"/><path fill="#292929" d="M 253.894531 99.515625 L 252.664062 99.515625 C 252.300781 99.515625 252.007812 99.21875 252.007812 98.859375 C 252.007812 98.496094 252.300781 98.203125 252.664062 98.203125 L 253.894531 98.203125 C 254.253906 98.203125 254.550781 98.496094 254.550781 98.859375 C 254.550781 99.21875 254.253906 99.515625 253.894531 99.515625 Z M 279.125 98.859375 C 279.125 98.496094 278.832031 98.203125 278.46875 98.203125 L 276.007812 98.203125 C 275.648438 98.203125 275.351562 98.496094 275.351562 98.859375 C 275.351562 99.21875 275.648438 99.515625 276.007812 99.515625 L 278.46875 99.515625 C 278.832031 99.515625 279.125 99.21875 279.125 98.859375 Z M 272.984375 98.859375 C 272.984375 98.496094 272.6875 98.203125 272.328125 98.203125 L 269.867188 98.203125 C 269.507812 98.203125 269.210938 98.496094 269.210938 98.859375 C 269.210938 99.21875 269.507812 99.515625 269.867188 99.515625 L 272.328125 99.515625 C 272.6875 99.515625 272.984375 99.21875 272.984375 98.859375 Z M 266.839844 98.859375 C 266.839844 98.496094 266.546875 98.203125 266.183594 98.203125 L 263.726562 98.203125 C 263.363281 98.203125 263.070312 98.496094 263.070312 98.859375 C 263.070312 99.21875 263.363281 99.515625 263.726562 99.515625 L 266.183594 99.515625 C 266.546875 99.515625 266.839844 99.21875 266.839844 98.859375 Z M 260.691406 98.859375 C 260.691406 98.496094 260.394531 98.203125 260.035156 98.203125 L 257.574219 98.203125 C 257.214844 98.203125 256.917969 98.496094 256.917969 98.859375 C 256.917969 99.21875 257.214844 99.515625 257.574219 99.515625 L 260.035156 99.515625 C 260.394531 99.515625 260.691406 99.21875 260.691406 98.859375 Z M 284.046875 98.859375 C 284.046875 98.496094 283.75 98.203125 283.390625 98.203125 L 282.160156 98.203125 C 281.796875 98.203125 281.503906 98.496094 281.503906 98.859375 C 281.503906 99.21875 281.796875 99.515625 282.160156 99.515625 L 283.390625 99.515625 C 283.75 99.515625 284.046875 99.21875 284.046875 98.859375 Z M 253.753906 67.070312 L 252.523438 67.070312 C 252.164062 67.070312 251.867188 66.773438 251.867188 66.410156 C 251.867188 66.050781 252.164062 65.753906 252.523438 65.753906 L 253.753906 65.753906 C 254.113281 65.753906 254.410156 66.050781 254.410156 66.410156 C 254.410156 66.773438 254.113281 67.070312 253.753906 67.070312 Z M 278.984375 66.410156 C 278.984375 66.050781 278.691406 65.753906 278.328125 65.753906 L 275.871094 65.753906 C 275.507812 65.753906 275.214844 66.050781 275.214844 66.410156 C 275.214844 66.773438 275.507812 67.070312 275.871094 67.070312 L 278.328125 67.070312 C 278.699219 67.070312 278.984375 66.78125 278.984375 66.410156 Z M 272.84375 66.410156 C 272.84375 66.050781 272.546875 65.753906 272.1875 65.753906 L 269.726562 65.753906 C 269.367188 65.753906 269.070312 66.050781 269.070312 66.410156 C 269.070312 66.773438 269.367188 67.070312 269.726562 67.070312 L 272.1875 67.070312 C 272.546875 67.070312 272.84375 66.78125 272.84375 66.410156 Z M 266.703125 66.410156 C 266.703125 66.050781 266.40625 65.753906 266.046875 65.753906 L 263.585938 65.753906 C 263.226562 65.753906 262.929688 66.050781 262.929688 66.410156 C 262.929688 66.773438 263.226562 67.070312 263.585938 67.070312 L 266.046875 67.070312 C 266.40625 67.070312 266.703125 66.78125 266.703125 66.410156 Z M 260.550781 66.410156 C 260.550781 66.050781 260.257812 65.753906 259.894531 65.753906 L 257.4375 65.753906 C 257.074219 65.753906 256.78125 66.050781 256.78125 66.410156 C 256.78125 66.773438 257.074219 67.070312 257.4375 67.070312 L 259.894531 67.070312 C 260.257812 67.070312 260.550781 66.78125 260.550781 66.410156 Z M 283.90625 66.410156 C 283.90625 66.050781 283.609375 65.753906 283.25 65.753906 L 282.019531 65.753906 C 281.660156 65.753906 281.363281 66.050781 281.363281 66.410156 C 281.363281 66.773438 281.660156 67.070312 282.019531 67.070312 L 283.25 67.070312 C 283.609375 67.070312 283.90625 66.78125 283.90625 66.410156 Z M 283.90625 66.410156 " fill-opacity="1" fill-rule="nonzero"/><path fill="#ffffff" d="M 112.128906 286.007812 C 111.703125 287.175781 110.882812 287.652344 109.488281 287.578125 C 108.222656 287.503906 106.699219 286.976562 105.289062 286.460938 C 105.15625 286.417969 105.035156 286.371094 104.894531 286.320312 L 104.65625 286.238281 C 103.355469 285.753906 87.863281 279.628906 83.945312 278.078125 C 83.851562 278.035156 83.761719 278.003906 83.679688 277.972656 L 87.742188 268.109375 C 90.421875 269.808594 97.007812 271.402344 100.066406 272.050781 C 102.523438 273.667969 104.453125 277.652344 104.476562 277.691406 C 104.550781 277.847656 104.683594 277.964844 104.835938 278.027344 C 104.9375 278.0625 113.757812 281.566406 112.128906 286.007812 Z M 153.980469 280.550781 C 153.816406 280.550781 153.652344 280.484375 153.539062 280.367188 C 153.507812 280.335938 150.09375 277.140625 147.660156 276.417969 C 147.40625 276.453125 147.125 276.484375 146.816406 276.519531 C 145.601562 276.640625 143.921875 276.746094 141.8125 276.832031 C 139.03125 276.9375 136.1875 276.984375 134.808594 277.003906 L 135.015625 288.191406 C 138.550781 288.21875 155.203125 288.316406 156.636719 288.316406 L 156.882812 288.316406 C 157.386719 288.316406 157.902344 288.316406 158.417969 288.308594 C 159.566406 288.285156 160.714844 288.191406 161.625 287.914062 C 162.96875 287.503906 163.558594 286.773438 163.558594 285.523438 C 163.566406 280.804688 154.082031 280.550781 153.980469 280.550781 Z M 153.980469 280.550781 " fill-opacity="1" fill-rule="nonzero"/><path fill="#ff5d5d" d="M 148.398438 274.933594 C 148.191406 274.992188 147.980469 275.03125 147.765625 275.058594 C 147.609375 275.023438 147.445312 275.046875 147.308594 275.121094 C 146.601562 275.210938 145.675781 275.277344 144.632812 275.34375 C 141.378906 275.542969 136.984375 275.640625 134.679688 275.664062 C 134.652344 275.625 134.621094 275.589844 134.597656 275.558594 C 131.667969 252.742188 126.289062 210.277344 126.289062 208.339844 C 126.289062 207.742188 125.886719 207.199219 125.214844 206.296875 C 123.910156 204.554688 121.484375 201.304688 120.03125 194.53125 C 119.949219 194.171875 119.597656 193.941406 119.238281 194.015625 C 118.875 194.097656 118.648438 194.449219 118.722656 194.8125 C 118.835938 195.335938 118.949219 195.84375 119.074219 196.335938 C 120.597656 202.378906 122.871094 205.417969 124.140625 207.101562 C 124.511719 207.59375 124.929688 208.152344 124.945312 208.332031 C 124.945312 208.808594 125.222656 211.402344 125.691406 215.320312 C 124.042969 219.089844 103.625 265.714844 101.328125 270.945312 C 101.140625 270.910156 100.902344 270.859375 100.640625 270.8125 C 100.558594 270.761719 100.484375 270.714844 100.402344 270.671875 C 100.230469 270.574219 100.015625 270.558594 99.828125 270.640625 C 98.410156 270.328125 96.433594 269.84375 94.496094 269.285156 C 88.824219 267.644531 87.988281 266.683594 87.871094 266.492188 C 88.609375 264.210938 96.949219 235.304688 101.648438 218.898438 C 103.007812 214.136719 104.066406 210.425781 104.535156 208.734375 C 104.648438 208.324219 104.789062 207.871094 104.945312 207.386719 C 105.59375 205.3125 106.414062 202.71875 106.175781 199.785156 C 106.09375 198.71875 105.828125 197.542969 105.527344 196.191406 C 104.722656 192.570312 103.597656 187.519531 105.140625 180.367188 C 105.617188 178.210938 106.257812 176.089844 107.058594 174.03125 C 107.558594 174.441406 108.183594 174.6875 108.832031 174.710938 C 110.324219 174.785156 112.675781 174.8125 115.53125 174.8125 C 120.574219 174.8125 127.167969 174.730469 133.242188 174.648438 C 138.179688 174.582031 142.835938 174.523438 145.757812 174.523438 C 145.988281 174.523438 146.222656 174.507812 146.453125 174.480469 C 147.871094 180.222656 150.226562 201.945312 150.585938 211.320312 C 150.996094 222.085938 148.628906 270.648438 148.398438 274.933594 Z M 148.398438 274.933594 " fill-opacity="1" fill-rule="nonzero"/><path fill="#ffe69a" d="M 163.378906 115.699219 C 162.902344 116.75 155.703125 119.882812 150.203125 120.960938 C 150.027344 119.546875 149.773438 118.152344 149.457031 116.773438 C 149.382812 116.410156 149.019531 116.171875 148.660156 116.253906 C 148.300781 116.339844 148.0625 116.691406 148.144531 117.050781 C 148.144531 117.070312 148.152344 117.078125 148.152344 117.09375 C 148.519531 118.660156 148.789062 120.253906 148.964844 121.855469 L 148.964844 121.871094 C 148.964844 121.871094 148.964844 121.878906 148.964844 121.878906 C 149.382812 125.492188 149.554688 130.007812 149.496094 135.648438 C 148.890625 135.015625 148.152344 134.515625 147.332031 134.1875 C 146.921875 134.015625 146.503906 133.882812 146.070312 133.777344 C 144.09375 133.300781 142.109375 133.613281 140.507812 134.582031 C 140.625 132.855469 140.738281 129.71875 140.535156 125.222656 C 140.515625 124.851562 140.214844 124.566406 139.84375 124.582031 C 139.84375 124.582031 139.835938 124.582031 139.835938 124.582031 C 139.46875 124.597656 139.179688 124.910156 139.195312 125.285156 C 139.46875 131.265625 139.164062 134.851562 139.074219 135.746094 C 138.957031 135.871094 138.84375 136 138.746094 136.125 C 137.8125 137.28125 137.277344 138.710938 137.210938 140.203125 L 121.707031 142.808594 C 121.230469 142.890625 120.507812 143.003906 120.367188 142.929688 C 120.238281 142.816406 120.089844 142.019531 120.042969 141.757812 C 119.285156 137.667969 117.972656 125.269531 120.917969 117.167969 C 121.042969 116.8125 120.871094 116.429688 120.515625 116.304688 C 120.164062 116.183594 119.777344 116.355469 119.65625 116.707031 C 116.613281 125.089844 117.949219 137.808594 118.722656 142.003906 C 119.039062 143.75 119.457031 144.277344 120.574219 144.277344 C 120.769531 144.277344 120.976562 144.261719 121.171875 144.234375 C 121.386719 145.113281 123.148438 152.535156 125.320312 160.023438 C 125.855469 161.871094 127.101562 163.09375 129.035156 163.660156 C 129.875 163.90625 130.824219 164.023438 131.847656 164.023438 C 136.484375 164.023438 142.78125 161.730469 148.414062 159.113281 C 148.511719 160.96875 148.644531 165.164062 148.078125 169.1875 C 148.019531 169.597656 147.980469 169.976562 147.945312 170.351562 C 147.726562 172.503906 147.570312 173.183594 145.757812 173.183594 C 142.835938 173.183594 138.171875 173.25 133.226562 173.308594 C 123.738281 173.429688 112.988281 173.570312 108.898438 173.375 L 108.824219 173.367188 C 108.796875 173.367188 108.773438 173.367188 108.75 173.355469 C 108.714844 173.355469 108.683594 173.347656 108.660156 173.339844 L 108.652344 173.339844 C 108.257812 173.265625 107.898438 173.054688 107.640625 172.742188 C 106.125 171.015625 106.132812 166.371094 106.265625 164.71875 L 106.265625 164.671875 C 106.273438 164.070312 106.28125 163.390625 106.289062 162.652344 C 106.394531 152.765625 106.660156 129.613281 110.183594 118.414062 C 112.652344 110.566406 116.410156 106.042969 119.121094 103.636719 C 119.128906 103.628906 119.140625 103.621094 119.148438 103.621094 C 119.164062 103.605469 120.804688 102.152344 125.222656 103.769531 C 125.574219 103.898438 125.960938 103.71875 126.085938 103.375 C 126.214844 103.019531 126.035156 102.636719 125.691406 102.511719 C 125.691406 102.511719 125.691406 102.511719 125.683594 102.511719 C 123.699219 101.789062 122.164062 101.609375 121.015625 101.683594 C 121.328125 100.515625 122.132812 98.585938 123.007812 98.785156 C 123.230469 98.832031 123.535156 98.90625 123.902344 99.007812 C 123.929688 99.015625 123.960938 99.023438 123.984375 99.03125 C 127.632812 100 137.417969 103.019531 138.285156 103.816406 C 138.582031 104.144531 138.917969 104.679688 139.246094 105.222656 C 139.277344 105.328125 139.335938 105.417969 139.410156 105.5 C 139.933594 106.402344 140.371094 107.265625 140.371094 107.28125 C 140.535156 107.617188 140.933594 107.75 141.269531 107.585938 C 141.609375 107.421875 141.738281 107.019531 141.574219 106.683594 C 141.542969 106.625 141.148438 105.835938 140.648438 104.957031 C 140.863281 104.351562 140.992188 103.472656 141.066406 102.527344 C 148.839844 101.757812 157.359375 101.109375 158.902344 101.355469 C 159.84375 103.359375 162.871094 110.761719 163.386719 114.226562 C 163.296875 114.433594 163.320312 114.679688 163.445312 114.867188 C 163.453125 114.875 163.453125 114.875 163.460938 114.882812 C 163.476562 115.214844 163.453125 115.5 163.378906 115.699219 Z M 163.378906 115.699219 " fill-opacity="1" fill-rule="nonzero"/><path fill="#ffffff" d="M 196.558594 69.136719 C 196.121094 71.265625 194.894531 72.996094 193.351562 73.652344 C 191.34375 74.507812 190.023438 74.269531 189.316406 73.980469 C 190.890625 72.234375 192.128906 69.769531 192.40625 68.375 C 192.425781 68.285156 192.441406 68.203125 192.449219 68.121094 C 192.488281 67.863281 192.472656 67.609375 192.40625 67.363281 C 192.375 67.242188 192.308594 67.117188 192.226562 67.019531 C 191.933594 66.640625 191.480469 66.429688 190.996094 66.445312 C 190.09375 66.484375 189.101562 67.289062 188.0625 68.832031 C 187.808594 69.03125 186.945312 69.636719 186.035156 69.992188 C 184.824219 67.855469 184.90625 65.820312 188.601562 63.085938 C 189.503906 62.421875 190.046875 61.824219 190.242188 61.296875 C 191.105469 61.265625 192.835938 61.421875 194.566406 62.890625 C 195.984375 64.410156 195.828125 65.691406 195.613281 66.320312 L 194.097656 65.902344 C 193.738281 65.804688 193.367188 66.007812 193.269531 66.371094 C 193.171875 66.730469 193.375 67.101562 193.738281 67.199219 L 195.792969 67.773438 C 195.851562 67.792969 195.917969 67.800781 195.976562 67.800781 C 196.195312 67.800781 196.402344 67.691406 196.523438 67.511719 C 196.589844 67.414062 196.648438 67.316406 196.695312 67.214844 C 196.738281 67.855469 196.6875 68.503906 196.558594 69.136719 Z M 149.09375 137.316406 C 148.675781 136.632812 148.078125 136.066406 147.371094 135.6875 L 145.691406 138.523438 C 145.566406 138.726562 145.347656 138.851562 145.109375 138.851562 C 145.066406 138.851562 145.027344 138.84375 144.984375 138.832031 L 142.992188 138.457031 C 142.625 138.390625 142.386719 138.046875 142.445312 137.675781 C 142.507812 137.308594 142.855469 137.070312 143.222656 137.125 C 143.230469 137.125 143.238281 137.125 143.238281 137.125 L 144.773438 137.414062 L 146.109375 135.164062 C 145.996094 135.132812 145.878906 135.089844 145.757812 135.066406 C 143.460938 134.515625 141.171875 135.238281 139.777344 136.953125 C 138.558594 138.457031 138.238281 140.476562 138.828125 142.527344 C 139.261719 141.855469 139.828125 141.273438 140.5 140.828125 C 144.339844 138.359375 147.824219 139.359375 149.863281 140.976562 C 149.921875 139.992188 149.832031 138.539062 149.09375 137.316406 Z M 221.894531 123.742188 C 218.425781 123.742188 215.621094 126.550781 215.621094 130.023438 C 215.621094 133.496094 218.425781 136.304688 221.894531 136.304688 C 225.363281 136.304688 228.167969 133.496094 228.167969 130.023438 C 228.167969 126.558594 225.363281 123.75 221.894531 123.742188 Z M 221.894531 123.742188 " fill-opacity="1" fill-rule="nonzero"/><path fill="#ffffff" d="M 150.039062 65.132812 C 150.054688 66.574219 149.339844 67.808594 148.160156 68.332031 C 140.804688 71.660156 140.058594 78.867188 139.613281 83.167969 C 139.582031 83.496094 139.542969 83.851562 139.5 84.203125 C 139.3125 76.175781 142 71.46875 145.585938 68.613281 C 148.429688 66.347656 148.945312 66.042969 149.226562 64.390625 C 149.480469 62.882812 147.5625 61.476562 147.5625 61.476562 C 149.375 62.234375 150.019531 63.859375 150.039062 65.132812 Z M 122.328125 101.699219 C 122.328125 101.699219 122.707031 99.941406 125.75 100.789062 C 127.855469 101.371094 136.308594 104 137.628906 104.777344 C 138.949219 105.558594 140.671875 107.699219 140.976562 107.636719 C 141.28125 107.570312 139.484375 103.652344 138.992188 103.347656 C 138.5 103.046875 123.328125 97.945312 122.835938 98.152344 C 122.34375 98.359375 120.738281 100.089844 120.53125 100.953125 C 120.328125 101.8125 120.492188 102.265625 121.066406 102.347656 C 121.640625 102.429688 122.328125 101.699219 122.328125 101.699219 Z M 119.140625 103.613281 C 119.128906 103.621094 119.121094 103.621094 119.113281 103.628906 C 116.398438 106.042969 112.652344 110.566406 110.175781 118.40625 C 106.648438 129.605469 106.394531 152.757812 106.28125 162.644531 C 106.273438 163.390625 106.265625 164.0625 106.257812 164.664062 L 106.257812 164.710938 C 106.125 166.355469 106.460938 153.054688 108.488281 135.402344 C 110.75 115.671875 115.726562 107.316406 120.023438 104.234375 C 121.65625 103.070312 125.207031 103.761719 125.207031 103.761719 C 120.796875 102.152344 119.15625 103.605469 119.140625 103.613281 Z M 224.445312 92.019531 C 227.449219 93.292969 229.585938 95.878906 228.59375 100.484375 C 227.601562 105.089844 222.386719 104.582031 222.386719 104.582031 C 224.445312 104.382812 226.882812 101.714844 226.785156 98.652344 C 226.75 97.5625 225.875 94.472656 223.355469 93.414062 C 220.035156 92.011719 216.640625 94.71875 216.640625 94.71875 C 216.804688 92.257812 221.445312 90.746094 224.445312 92.019531 Z M 224.445312 60.050781 C 227.449219 61.320312 229.585938 63.90625 228.59375 68.515625 C 227.601562 73.121094 222.386719 72.609375 222.386719 72.609375 C 224.445312 72.414062 226.882812 69.746094 226.785156 66.683594 C 226.75 65.589844 225.839844 62.160156 223.355469 61.445312 C 219.886719 60.453125 216.640625 62.75 216.640625 62.75 C 216.804688 60.289062 221.445312 58.777344 224.445312 60.050781 Z M 224.445312 60.050781 " fill-opacity="1" fill-rule="nonzero"/><path fill="#292929" d="M 119.246094 143.128906 L 121.714844 144.351562 C 121.714844 144.351562 123.894531 152.996094 125.003906 156.945312 C 126.109375 160.894531 127.601562 163.824219 133.144531 163.511719 C 138.492188 163.210938 149.175781 158.121094 149.175781 158.121094 L 149.175781 161.453125 C 149.175781 161.453125 142.550781 164.292969 134.5625 166.765625 C 126.355469 169.300781 124.328125 165.171875 122.492188 158.652344 C 120.558594 151.789062 118.238281 138.71875 118.238281 138.71875 Z M 182.722656 74.246094 C 182.574219 74.515625 180.058594 74.769531 179.902344 75.058594 C 179.65625 75.5 181.984375 76.109375 181.730469 76.59375 C 178.492188 82.570312 172.472656 94.402344 170.03125 98.144531 C 166.085938 104.195312 161.386719 105.460938 161.386719 105.460938 L 164.09375 114.195312 C 164.09375 114.195312 166.265625 111.796875 171.613281 107.265625 C 176.957031 102.734375 183.558594 79.144531 183.722656 79.105469 C 183.886719 79.0625 184.878906 76.542969 184.878906 76.542969 C 184.660156 76.4375 190.5625 72.59375 190.339844 71.3125 C 190.1875 70.386719 192.480469 67.980469 191.769531 67.09375 C 191.261719 66.460938 190.695312 68.195312 189.832031 67.765625 C 188.949219 67.332031 186.996094 71.429688 186.019531 70.855469 C 185.832031 70.746094 184.101562 71.765625 182.722656 74.246094 Z M 160.984375 150.542969 C 158.738281 152.511719 137.449219 164.738281 129.398438 162.371094 C 127.921875 161.9375 127.003906 161.050781 126.601562 159.648438 C 124.511719 152.421875 122.789062 145.261719 122.5 144.023438 L 128.9375 142.945312 C 129.027344 143.0625 129.078125 143.128906 129.078125 143.128906 C 129.078125 143.128906 131.777344 157.742188 134.605469 157.863281 C 140.84375 158.136719 154.179688 152.660156 156.394531 151.304688 C 158.613281 149.949219 157.507812 147.742188 158.796875 148.972656 C 160.066406 150.1875 162.410156 148.160156 163.042969 145.523438 C 163.199219 147.09375 162.820312 148.933594 160.984375 150.542969 Z M 140.097656 102.265625 C 139.859375 104.574219 139.761719 104.65625 139.066406 103.742188 C 138.367188 102.832031 135.328125 101.804688 135.328125 101.804688 C 135.328125 101.804688 135.367188 97.527344 136.359375 97.40625 C 137.351562 97.28125 140.835938 96.742188 140.835938 96.742188 C 140.835938 96.742188 140.335938 99.957031 140.097656 102.265625 Z M 125.691406 215.320312 C 124.042969 219.089844 103.625 265.714844 101.328125 270.945312 C 101.140625 270.910156 100.902344 270.859375 100.640625 270.8125 C 100.558594 270.761719 100.484375 270.714844 100.402344 270.671875 C 100.230469 270.574219 100.015625 270.558594 99.828125 270.640625 C 98.410156 270.328125 100.375 266.839844 106.632812 250.84375 C 111.316406 238.867188 118.785156 222.152344 119.253906 214.664062 C 119.523438 210.367188 118.84375 200.671875 119.082031 196.328125 C 120.605469 202.371094 122.878906 205.410156 124.148438 207.09375 C 124.519531 207.585938 124.9375 208.144531 124.953125 208.324219 C 124.945312 208.808594 125.222656 211.402344 125.691406 215.320312 Z M 147.742188 70 C 148.480469 70.410156 149.839844 75.761719 149.882812 77.742188 C 149.921875 79.71875 151.652344 81.894531 151.488281 82.921875 C 151.324219 83.949219 150.21875 83.75 150.382812 84.738281 C 150.546875 85.722656 150.382812 89.679688 150.382812 89.679688 C 149.480469 98.078125 140.992188 96.320312 140.992188 96.320312 C 146.25 93.957031 147.175781 92.847656 146.25 86.863281 C 145.324219 80.878906 142.542969 75.9375 142.542969 75.9375 C 142.117188 73.292969 146.996094 69.589844 147.742188 70 Z M 148.398438 274.933594 C 148.191406 274.992188 147.980469 275.03125 147.765625 275.058594 C 147.609375 275.023438 147.445312 275.046875 147.308594 275.121094 C 146.601562 275.210938 145.675781 275.277344 144.632812 275.34375 C 142.78125 258.75 142.007812 204.636719 139.277344 190.351562 C 136.464844 175.648438 111.316406 179.234375 105.140625 180.378906 C 105.617188 178.21875 106.257812 176.101562 107.058594 174.039062 C 107.558594 174.449219 108.183594 174.695312 108.832031 174.71875 C 110.324219 174.792969 112.675781 174.820312 115.53125 174.820312 C 120.574219 174.820312 127.167969 174.738281 133.242188 174.65625 C 138.179688 174.589844 142.835938 174.53125 145.757812 174.53125 C 145.988281 174.53125 146.222656 174.515625 146.453125 174.492188 C 147.871094 180.230469 150.226562 201.953125 150.585938 211.328125 C 150.996094 222.085938 148.628906 270.648438 148.398438 274.933594 Z M 112.128906 286.007812 C 111.703125 287.175781 110.882812 287.652344 109.488281 287.578125 C 108.222656 287.503906 106.699219 286.976562 105.289062 286.460938 C 108.117188 287.453125 109.832031 286.886719 109.914062 284.679688 C 109.996094 282.371094 104.074219 280.148438 101.359375 278.339844 C 98.648438 276.527344 101.03125 274.390625 99.375 273.972656 C 97.71875 273.5625 91.078125 271.253906 89.765625 270.945312 C 88.453125 270.632812 84.089844 277.847656 84.089844 277.847656 C 84.050781 277.914062 84 277.988281 83.945312 278.070312 C 83.851562 278.027344 83.761719 277.996094 83.679688 277.964844 L 87.742188 268.101562 C 90.421875 269.800781 97.007812 271.394531 100.066406 272.042969 C 102.523438 273.660156 104.453125 277.644531 104.476562 277.683594 C 104.550781 277.839844 104.683594 277.953125 104.835938 278.019531 C 104.9375 278.0625 113.757812 281.566406 112.128906 286.007812 Z M 149.175781 115.730469 C 149.175781 115.730469 151.175781 117.371094 155.417969 116.058594 C 164.839844 113.144531 159.761719 104.828125 158.917969 100.304688 C 158.917969 100.304688 162.15625 107.085938 163.460938 110.589844 C 164.765625 114.097656 164.675781 115.566406 161.304688 117.242188 C 157.933594 118.914062 149.882812 121.378906 149.882812 121.378906 Z M 163.566406 285.523438 C 163.566406 286.765625 162.96875 287.503906 161.632812 287.914062 C 160.722656 288.191406 159.574219 288.285156 158.425781 288.308594 C 161.304688 284.6875 157.441406 282.953125 153.242188 282.371094 C 149.054688 281.789062 149.792969 278.511719 147.078125 278.675781 C 144.363281 278.839844 137.867188 278.59375 137.457031 279.335938 C 137.046875 280.074219 135.023438 288.191406 135.023438 288.191406 L 134.816406 277.003906 C 136.1875 276.984375 139.03125 276.9375 141.820312 276.828125 C 143.921875 276.746094 145.601562 276.640625 146.824219 276.519531 C 147.132812 276.484375 147.414062 276.453125 147.667969 276.417969 C 150.101562 277.148438 153.515625 280.335938 153.546875 280.367188 C 153.671875 280.484375 153.824219 280.550781 153.988281 280.550781 C 154.082031 280.550781 163.566406 280.804688 163.566406 285.523438 Z M 196.558594 69.136719 C 196.121094 71.265625 194.894531 72.996094 193.351562 73.652344 C 191.34375 74.507812 190.023438 74.269531 189.316406 73.980469 C 190.890625 72.234375 192.128906 69.769531 192.40625 68.375 C 192.441406 69.664062 192.621094 71.714844 193.382812 71.714844 C 194.902344 71.660156 196.195312 70.605469 196.558594 69.136719 Z M 191.597656 61.410156 C 191.597656 61.410156 189.628906 64 188.054688 65.269531 C 186.480469 66.542969 189.085938 66.765625 191.003906 66.453125 C 191.003906 66.453125 188.332031 69.566406 187.371094 70.121094 C 186.414062 70.679688 185.707031 71.050781 185.339844 69.875 C 184.96875 68.703125 184.445312 67.347656 185.496094 65.582031 C 186.542969 63.816406 188.667969 62.773438 189.136719 62.003906 C 189.601562 61.230469 189.503906 60.828125 190.554688 60.828125 C 191.605469 60.828125 191.597656 61.410156 191.597656 61.410156 Z M 140.535156 125.214844 C 140.535156 125.214844 141.902344 130.148438 142.582031 130.953125 C 143.265625 131.757812 149.503906 131.9375 149.882812 134.351562 C 150.242188 136.632812 150.226562 137.496094 150.226562 137.496094 C 150.226562 137.496094 147.265625 133.605469 143.746094 134.351562 C 140.230469 135.097656 139.433594 136.117188 139.433594 136.117188 Z M 145.8125 140.746094 C 145.8125 140.746094 139.738281 142.070312 140.664062 146.765625 C 140.664062 146.765625 141.125 150.15625 149.0625 148.292969 C 149.0625 148.292969 138.722656 150.222656 138.53125 150.074219 C 138.34375 149.925781 137.484375 145.007812 140.089844 142.691406 C 142.699219 140.378906 144.75 140.542969 145.8125 140.746094 Z M 158.5 140.632812 C 158.5 140.632812 156.710938 138.824219 153.777344 139.941406 C 151.039062 140.984375 152.300781 146.445312 153.777344 146.355469 C 154.457031 146.3125 154.808594 145.789062 154.769531 144.359375 C 154.726562 142.929688 155.621094 145.304688 155.425781 146.050781 C 155.226562 146.796875 152.078125 148.890625 151.777344 148.734375 C 151.472656 148.578125 152.234375 144.875 151.441406 143.769531 C 150.644531 142.660156 150.601562 142.132812 150.667969 140.960938 C 150.734375 139.785156 150.480469 139.328125 152.421875 138.726562 C 154.367188 138.128906 156.769531 137.875 157.941406 138.523438 C 159.113281 139.171875 159 139.539062 158.5 140.632812 Z M 224.445312 123.777344 C 227.449219 125.050781 229.585938 127.636719 228.59375 132.242188 C 227.601562 136.847656 222.386719 136.335938 222.386719 136.335938 C 224.445312 136.140625 226.882812 133.472656 226.785156 130.410156 C 226.75 129.316406 225.464844 128.890625 224.652344 127.792969 C 223.953125 126.855469 224.117188 125.535156 223.355469 125.171875 C 220.09375 123.636719 216.640625 126.476562 216.640625 126.476562 C 216.804688 124.007812 221.445312 122.496094 224.445312 123.777344 Z M 144.65625 134.902344 C 144.65625 134.902344 141.410156 135.648438 140.632812 137.832031 C 139.851562 140.015625 142.007812 139.949219 142.835938 139.738281 C 143.664062 139.523438 141.617188 140.917969 140.796875 141.574219 C 139.976562 142.234375 139.296875 144.113281 138.550781 143.136719 C 137.800781 142.160156 137.957031 138.203125 139.03125 136.765625 C 140.105469 135.328125 142.519531 134.113281 144.65625 134.902344 Z M 313.289062 138.046875 C 312.941406 142.75 308.121094 143.136719 308.121094 143.136719 C 308.121094 143.136719 223.46875 143.046875 216.3125 142.882812 C 209.152344 142.71875 210.636719 139.203125 210.636719 139.203125 C 211.785156 140.460938 211.734375 140.835938 214.828125 140.910156 C 217.917969 140.984375 296.8125 141.304688 302.570312 141.207031 C 307.582031 141.125 307.210938 138.046875 307.046875 128.242188 C 307.007812 125.65625 306.964844 123.824219 306.933594 122.519531 C 306.882812 120.746094 305.441406 119.328125 303.667969 119.316406 C 299.667969 119.285156 228.421875 119.015625 222.96875 119.097656 C 214.457031 119.226562 210.449219 118.914062 210.21875 124.285156 C 210.21875 124.285156 209.769531 118.121094 214.582031 117.371094 C 219.394531 116.625 304.421875 117.242188 307.5 117.316406 C 310.574219 117.390625 312.804688 119.84375 313.171875 121.082031 C 313.261719 121.429688 313.296875 121.796875 313.269531 122.152344 C 313.269531 122.175781 313.277344 122.207031 313.277344 122.234375 C 313.492188 124.875 313.632812 133.339844 313.289062 138.046875 Z M 313.289062 106.199219 C 312.941406 110.902344 308.121094 111.289062 308.121094 111.289062 C 308.121094 111.289062 223.46875 111.199219 216.3125 111.035156 C 209.152344 110.871094 210.636719 107.355469 210.636719 107.355469 C 211.785156 108.613281 211.734375 108.988281 214.828125 109.0625 C 217.917969 109.136719 296.8125 109.457031 302.570312 109.359375 C 307.582031 109.277344 307.210938 106.199219 307.046875 96.394531 C 307.007812 93.816406 306.964844 91.976562 306.933594 90.671875 C 306.882812 88.898438 305.441406 87.480469 303.667969 87.472656 C 299.667969 87.4375 228.421875 87.167969 222.96875 87.25 C 214.457031 87.378906 210.449219 87.070312 210.21875 92.4375 C 210.21875 92.4375 209.769531 86.273438 214.582031 85.523438 C 219.394531 84.777344 304.421875 85.394531 307.5 85.46875 C 310.574219 85.542969 312.804688 87.996094 313.171875 89.234375 C 313.261719 89.582031 313.296875 89.949219 313.269531 90.304688 C 313.269531 90.328125 313.277344 90.359375 313.277344 90.386719 C 313.492188 93.027344 313.632812 101.492188 313.289062 106.199219 Z M 313.605469 74.210938 C 313.261719 78.917969 308.441406 79.300781 308.441406 79.300781 C 308.441406 79.300781 223.789062 79.210938 216.632812 79.046875 C 209.472656 78.882812 210.957031 75.371094 210.957031 75.371094 C 212.105469 76.625 212.054688 77.003906 215.148438 77.078125 C 218.238281 77.152344 297.132812 77.472656 302.890625 77.371094 C 307.898438 77.289062 307.53125 74.210938 307.367188 64.410156 C 307.324219 61.824219 307.285156 59.992188 307.253906 58.6875 C 307.203125 56.914062 305.757812 55.492188 303.988281 55.484375 C 299.988281 55.453125 228.742188 55.179688 223.289062 55.261719 C 214.777344 55.394531 210.769531 55.082031 210.539062 60.453125 C 210.539062 60.453125 210.085938 54.285156 214.902344 53.539062 C 219.714844 52.792969 304.742188 53.40625 307.816406 53.480469 C 310.894531 53.554688 313.125 56.007812 313.492188 57.25 C 313.582031 57.59375 313.617188 57.964844 313.589844 58.316406 C 313.589844 58.339844 313.597656 58.375 313.597656 58.398438 C 313.8125 61.042969 313.953125 69.507812 313.605469 74.210938 Z M 313.605469 74.210938 " fill-opacity="0.2" fill-rule="nonzero"/><path fill="#292929" d="M 196.132812 62.511719 C 195.917969 62.289062 195.703125 62.09375 195.5 61.914062 C 195.449219 61.855469 195.402344 61.804688 195.34375 61.757812 C 195.277344 61.691406 195.203125 61.640625 195.121094 61.609375 C 192.777344 59.785156 190.457031 59.886719 189.667969 59.992188 C 189.367188 59.894531 189.046875 59.867188 188.734375 59.902344 C 187.070312 60.03125 183.28125 61.066406 180.828125 64.015625 C 179.320312 65.820312 178.886719 68.71875 178.535156 71.050781 C 178.371094 72.132812 178.195312 73.25 177.976562 73.621094 C 176.886719 75.410156 167.636719 90.074219 164.699219 93.75 C 162.28125 96.789062 159.992188 99.21875 159.207031 100.039062 C 158.214844 99.875 155.828125 99.910156 149.710938 100.394531 C 146.183594 100.671875 142.648438 101.007812 141.132812 101.15625 C 141.179688 99.695312 141.132812 98.292969 141.105469 97.667969 C 141.789062 97.570312 142.535156 97.445312 143.363281 97.296875 C 149.28125 96.222656 151.40625 92.808594 151.09375 84.777344 C 151.816406 84.246094 152.339844 83.414062 152.195312 82.601562 C 152.078125 81.929688 151.644531 80.976562 151.226562 80.050781 C 150.9375 79.417969 150.644531 78.769531 150.539062 78.382812 C 150.300781 77.511719 150.203125 76.476562 150.109375 75.484375 C 149.972656 74.03125 149.832031 72.535156 149.257812 71.421875 C 148.953125 70.828125 148.757812 70.460938 148.5625 70.097656 C 148.496094 69.984375 148.429688 69.859375 148.363281 69.738281 C 148.472656 69.679688 148.585938 69.628906 148.699219 69.574219 C 150.375 68.816406 151.390625 67.109375 151.367188 65.121094 C 151.347656 62.980469 150.054688 61.058594 148.078125 60.253906 C 143.804688 58.457031 138.121094 58.226562 132.496094 59.613281 C 127.085938 60.945312 122.515625 63.613281 120.296875 66.742188 C 116.695312 71.8125 117.023438 78.761719 121.179688 85.3125 C 123.050781 88.257812 123.566406 91.921875 123.589844 94.902344 C 123.589844 94.949219 123.589844 95 123.589844 95.039062 C 123.601562 95.953125 123.558594 96.789062 123.5 97.519531 C 123.402344 97.496094 123.320312 97.472656 123.273438 97.460938 C 120.730469 96.914062 119.714844 101.199219 119.605469 101.683594 C 119.589844 101.757812 119.589844 101.839844 119.597656 101.921875 C 118.753906 102.175781 118.3125 102.535156 118.203125 102.644531 C 115.367188 105.171875 111.445312 109.882812 108.878906 118.019531 C 105.296875 129.417969 105.050781 151.863281 104.929688 162.652344 C 104.917969 163.382812 104.910156 164.054688 104.902344 164.648438 C 104.871094 165.089844 104.535156 170.074219 106.066406 172.847656 C 101.476562 184.269531 103.109375 191.625 104.199219 196.5 C 104.484375 197.808594 104.738281 198.941406 104.8125 199.910156 C 105.027344 202.578125 104.253906 205.03125 103.640625 206.996094 C 103.484375 207.488281 103.34375 207.945312 103.222656 208.382812 C 101.113281 215.960938 87.304688 263.898438 86.558594 266.132812 C 86.453125 266.46875 86.492188 266.839844 86.683594 267.140625 L 82.179688 278.09375 C 82.042969 278.4375 82.207031 278.824219 82.542969 278.972656 C 82.542969 278.972656 82.550781 278.972656 82.550781 278.980469 C 83.371094 279.308594 102.6875 286.953125 104.191406 287.511719 L 104.429688 287.601562 C 106.019531 288.183594 107.824219 288.851562 109.40625 288.941406 C 109.527344 288.949219 109.644531 288.949219 109.757812 288.949219 C 111.5625 288.949219 112.785156 288.128906 113.382812 286.492188 C 115.300781 281.253906 107.140625 277.550781 105.566406 276.894531 C 105.191406 276.148438 103.953125 273.867188 102.238281 272.148438 C 102.28125 272.101562 102.3125 272.042969 102.335938 271.984375 C 102.550781 271.5 121.351562 228.578125 125.996094 217.988281 C 128.191406 236.3125 133.070312 274.375 133.339844 276.445312 C 133.359375 276.550781 133.398438 276.65625 133.457031 276.738281 L 133.6875 288.890625 C 133.695312 289.253906 133.988281 289.546875 134.351562 289.546875 C 134.554688 289.546875 155.039062 289.671875 156.636719 289.671875 L 157.148438 289.671875 C 158.777344 289.671875 160.582031 289.644531 162.019531 289.210938 C 163.9375 288.628906 164.914062 287.386719 164.914062 285.542969 C 164.914062 279.957031 155.957031 279.300781 154.269531 279.226562 C 153.644531 278.652344 151.59375 276.863281 149.5625 275.796875 C 149.636719 275.695312 149.683594 275.589844 149.703125 275.476562 C 149.773438 275.097656 150.464844 260.722656 151.011719 247.242188 C 151.546875 234.015625 152.136719 217.042969 151.921875 211.296875 C 151.554688 201.847656 149.167969 179.882812 147.734375 174.113281 C 148.972656 173.40625 149.128906 171.9375 149.273438 170.507812 C 149.308594 170.148438 149.347656 169.777344 149.398438 169.398438 C 150.054688 164.753906 149.816406 160.015625 149.71875 158.511719 C 155.917969 155.515625 161.058594 152.289062 161.878906 151.574219 C 165.132812 148.726562 164.566406 145.222656 163.9375 143.390625 C 163.074219 140.886719 161.15625 138.703125 159.746094 138.621094 C 159.664062 138.621094 159.582031 138.621094 159.5 138.628906 C 159.460938 138.570312 159.402344 138.515625 159.34375 138.472656 C 159.304688 138.441406 155.277344 135.796875 151.09375 138.875 C 151.03125 138.53125 150.9375 138.183594 150.824219 137.847656 C 150.949219 131.445312 150.800781 126.363281 150.375 122.324219 C 155.382812 121.339844 163.878906 118.152344 164.640625 116.214844 C 164.78125 115.863281 164.824219 115.359375 164.78125 114.769531 C 165.929688 113.917969 169.449219 111.058594 173.605469 105.371094 C 178.828125 98.21875 184.722656 78.441406 184.78125 78.234375 C 185.003906 77.480469 185.40625 77.160156 186.914062 76.042969 C 187.265625 75.789062 187.660156 75.492188 188.121094 75.148438 C 188.183594 75.097656 188.25 75.039062 188.316406 74.992188 C 188.800781 75.269531 189.628906 75.617188 190.792969 75.617188 C 191.644531 75.617188 192.6875 75.433594 193.902344 74.917969 C 195.84375 74.097656 197.378906 71.996094 197.894531 69.433594 C 198.410156 66.78125 197.761719 64.203125 196.132812 62.511719 Z M 148.78125 75.597656 C 148.882812 76.660156 148.988281 77.75 149.25 78.726562 C 149.382812 79.210938 149.683594 79.886719 150.011719 80.597656 C 150.382812 81.402344 150.792969 82.316406 150.882812 82.824219 C 150.9375 83.136719 150.421875 83.800781 149.726562 83.964844 C 149.363281 84.054688 149.144531 84.417969 149.234375 84.777344 C 149.300781 85.039062 149.511719 85.238281 149.773438 85.289062 C 149.792969 85.917969 149.792969 86.511719 149.773438 87.058594 C 149.675781 87.226562 149.257812 87.726562 147.945312 87.503906 C 147.578125 87.445312 147.234375 87.691406 147.175781 88.0625 C 147.117188 88.429688 147.363281 88.777344 147.734375 88.832031 C 148.011719 88.882812 148.289062 88.90625 148.578125 88.90625 C 148.953125 88.914062 149.324219 88.851562 149.675781 88.734375 C 149.144531 93.800781 146.847656 95.296875 143.132812 95.96875 C 139.246094 96.675781 137.03125 96.730469 137.015625 96.730469 C 136.644531 96.742188 136.34375 97.042969 136.351562 97.414062 C 136.359375 97.78125 136.664062 98.085938 137.03125 98.078125 L 137.046875 98.078125 C 137.105469 98.078125 138.058594 98.054688 139.789062 97.839844 C 139.835938 99.015625 139.84375 100.507812 139.777344 101.832031 C 139.746094 102.378906 139.707031 102.90625 139.648438 103.347656 C 139.53125 103.183594 139.410156 103.039062 139.304688 102.914062 C 138.335938 101.8125 128.734375 98.957031 124.855469 97.875 C 124.902344 97.265625 124.945312 96.574219 124.960938 95.835938 C 126.019531 96.058594 127.796875 96.199219 129.109375 95.140625 C 130.421875 94.089844 130.90625 92.167969 130.539062 89.433594 C 130.503906 89.179688 130.472656 88.925781 130.457031 88.679688 C 131.25 89.671875 132.398438 89.957031 133.316406 89.957031 C 133.644531 89.957031 133.964844 89.917969 134.285156 89.84375 C 134.644531 89.761719 134.875 89.402344 134.792969 89.039062 C 134.710938 88.679688 134.351562 88.449219 133.988281 88.53125 C 133.972656 88.53125 133.964844 88.539062 133.949219 88.539062 C 133.867188 88.5625 132.03125 89.015625 131.234375 87.414062 C 130.472656 85.871094 131.144531 83.605469 131.152344 83.585938 C 131.160156 83.5625 131.160156 83.539062 131.167969 83.503906 C 131.644531 82.472656 132.300781 81.804688 133.003906 81.585938 C 134.136719 81.214844 134.882812 82.226562 135.21875 82.855469 C 135.425781 83.234375 135.621094 83.652344 135.828125 84.105469 C 136.671875 85.917969 137.730469 88.183594 139.605469 87.363281 C 140.582031 86.9375 140.730469 85.492188 140.960938 83.300781 C 141.371094 79.375 141.96875 73.605469 147.207031 70.359375 C 147.273438 70.484375 147.339844 70.597656 147.398438 70.714844 C 147.59375 71.074219 147.78125 71.429688 148.078125 72.011719 C 148.527344 72.90625 148.652344 74.210938 148.78125 75.597656 Z M 122.320312 84.574219 C 118.464844 78.496094 118.121094 72.117188 121.402344 67.503906 C 125.503906 61.722656 138.648438 57.734375 147.570312 61.476562 C 149.054688 62.085938 150.019531 63.523438 150.039062 65.121094 C 150.054688 66.566406 149.339844 67.800781 148.160156 68.324219 C 140.804688 71.648438 140.058594 78.859375 139.613281 83.160156 C 139.492188 84.316406 139.328125 85.910156 139.058594 86.125 C 138.425781 86.394531 137.769531 85.113281 137.03125 83.53125 C 136.828125 83.085938 136.605469 82.617188 136.390625 82.207031 C 135.5 80.550781 134.039062 79.820312 132.578125 80.296875 C 130.375 81.007812 128.511719 84.433594 129.191406 89.597656 C 129.488281 91.832031 129.175781 93.332031 128.257812 94.070312 C 127.25 94.886719 125.691406 94.628906 124.9375 94.441406 C 124.855469 91.363281 124.265625 87.636719 122.320312 84.574219 Z M 104.484375 277.691406 C 104.558594 277.847656 104.691406 277.964844 104.847656 278.027344 C 104.9375 278.0625 113.757812 281.566406 112.128906 286.007812 C 111.703125 287.175781 110.882812 287.652344 109.488281 287.578125 C 108.109375 287.496094 106.402344 286.871094 104.902344 286.320312 L 104.664062 286.238281 C 103.328125 285.746094 87.117188 279.335938 83.679688 277.972656 L 87.742188 268.109375 C 90.421875 269.808594 97.007812 271.402344 100.066406 272.050781 C 102.535156 273.667969 104.460938 277.652344 104.484375 277.691406 Z M 153.539062 280.367188 C 153.660156 280.484375 153.816406 280.550781 153.980469 280.550781 C 154.082031 280.550781 163.566406 280.804688 163.566406 285.523438 C 163.566406 286.765625 162.96875 287.503906 161.632812 287.914062 C 160.3125 288.316406 158.5 288.324219 156.894531 288.316406 L 156.648438 288.316406 C 155.210938 288.316406 138.558594 288.21875 135.023438 288.191406 L 134.816406 277.003906 C 136.1875 276.984375 139.03125 276.9375 141.820312 276.828125 C 143.921875 276.746094 145.601562 276.640625 146.824219 276.519531 C 147.132812 276.484375 147.414062 276.453125 147.667969 276.417969 C 150.09375 277.148438 153.507812 280.335938 153.539062 280.367188 Z M 150.578125 211.328125 C 150.996094 222.085938 148.628906 270.648438 148.398438 274.933594 C 148.191406 274.992188 147.980469 275.03125 147.765625 275.058594 C 147.609375 275.023438 147.445312 275.046875 147.308594 275.121094 C 144.410156 275.476562 137.730469 275.640625 134.679688 275.664062 C 134.652344 275.625 134.621094 275.589844 134.597656 275.558594 C 131.667969 252.742188 126.289062 210.277344 126.289062 208.339844 C 126.289062 207.742188 125.886719 207.199219 125.214844 206.296875 C 123.910156 204.554688 121.484375 201.304688 120.03125 194.53125 C 119.949219 194.171875 119.597656 193.941406 119.238281 194.015625 C 118.875 194.097656 118.648438 194.449219 118.722656 194.8125 C 120.230469 201.878906 122.773438 205.277344 124.140625 207.101562 C 124.511719 207.59375 124.929688 208.152344 124.945312 208.332031 C 124.945312 208.808594 125.222656 211.402344 125.691406 215.320312 C 124.042969 219.089844 103.625 265.714844 101.328125 270.945312 C 101.140625 270.910156 100.902344 270.859375 100.640625 270.8125 C 100.558594 270.761719 100.484375 270.714844 100.402344 270.671875 C 100.230469 270.574219 100.015625 270.558594 99.828125 270.640625 C 98.410156 270.328125 96.433594 269.84375 94.496094 269.285156 C 88.824219 267.644531 87.988281 266.683594 87.871094 266.492188 C 88.824219 263.546875 102.441406 216.265625 104.535156 208.734375 C 104.648438 208.324219 104.789062 207.871094 104.945312 207.386719 C 105.59375 205.3125 106.414062 202.71875 106.175781 199.785156 C 106.09375 198.71875 105.828125 197.542969 105.527344 196.191406 C 104.5 191.585938 102.960938 184.664062 107.058594 174.03125 C 107.558594 174.441406 108.183594 174.6875 108.832031 174.710938 C 110.324219 174.785156 112.675781 174.8125 115.53125 174.8125 C 120.574219 174.8125 127.167969 174.730469 133.242188 174.648438 C 138.179688 174.582031 142.835938 174.523438 145.757812 174.523438 C 145.988281 174.523438 146.222656 174.507812 146.453125 174.480469 C 147.871094 180.222656 150.21875 201.953125 150.578125 211.328125 Z M 162.402344 143.136719 C 163.132812 144.792969 163.921875 147.972656 160.984375 150.542969 C 158.738281 152.511719 137.449219 164.738281 129.398438 162.371094 C 127.921875 161.9375 127.003906 161.050781 126.601562 159.648438 C 124.511719 152.421875 122.789062 145.261719 122.5 144.023438 L 137.261719 141.550781 C 137.375 142.460938 137.640625 143.359375 138.023438 144.195312 C 137.300781 146.207031 137.320312 148.421875 137.777344 149.613281 C 138.148438 150.574219 138.738281 150.738281 139.097656 150.738281 C 139.148438 150.738281 139.195312 150.738281 139.246094 150.730469 C 139.828125 150.707031 146.542969 150.359375 151.464844 149.152344 C 151.464844 149.152344 151.472656 149.152344 151.472656 149.152344 C 156.1875 147.988281 156.597656 147.222656 156.1875 144.703125 C 156.164062 144.539062 156.128906 144.359375 156.105469 144.171875 C 155.949219 143.085938 156.105469 142.554688 156.203125 142.363281 C 156.230469 142.390625 156.253906 142.414062 156.277344 142.4375 C 156.449219 142.644531 156.679688 143.085938 156.894531 143.511719 C 157.492188 144.695312 158.230469 146.148438 159.46875 145.804688 C 159.820312 145.761719 161.027344 145.542969 161.707031 144.433594 C 161.902344 144.121094 161.804688 143.703125 161.492188 143.503906 C 161.3125 143.398438 161.097656 143.375 160.902344 143.449219 C 160.746094 142.964844 160.558594 142.460938 160.378906 141.976562 C 160.125 141.304688 159.761719 140.328125 159.738281 139.941406 C 160.214844 140.039062 161.542969 141.183594 162.402344 143.136719 Z M 142.992188 138.464844 L 144.984375 138.84375 C 145.027344 138.851562 145.066406 138.859375 145.109375 138.859375 C 145.347656 138.859375 145.566406 138.734375 145.691406 138.53125 L 147.371094 135.699219 C 148.078125 136.074219 148.675781 136.632812 149.09375 137.324219 C 149.839844 138.546875 149.921875 140 149.863281 141 C 147.832031 139.382812 144.339844 138.375 140.5 140.851562 C 139.828125 141.296875 139.261719 141.871094 138.828125 142.554688 C 138.238281 140.5 138.558594 138.480469 139.777344 136.976562 C 141.164062 135.261719 143.460938 134.539062 145.757812 135.089844 C 145.878906 135.121094 145.996094 135.15625 146.109375 135.1875 L 144.773438 137.4375 L 143.238281 137.152344 C 142.878906 137.078125 142.519531 137.316406 142.445312 137.675781 C 142.371094 138.039062 142.609375 138.398438 142.96875 138.472656 C 142.976562 138.457031 142.984375 138.464844 142.992188 138.464844 Z M 151.226562 140.476562 C 154.515625 137.496094 157.746094 139.078125 158.441406 139.492188 C 158.253906 140.097656 158.550781 140.960938 159.105469 142.453125 C 159.335938 143.0625 159.566406 143.6875 159.730469 144.269531 C 159.738281 144.292969 159.746094 144.328125 159.761719 144.351562 C 159.605469 144.410156 159.441406 144.449219 159.277344 144.464844 C 159.222656 144.464844 159.164062 144.480469 159.113281 144.5 C 158.828125 144.382812 158.320312 143.390625 158.074219 142.90625 C 157.8125 142.390625 157.566406 141.894531 157.285156 141.574219 C 156.820312 141.019531 156.210938 140.835938 155.664062 141.082031 C 154.835938 141.460938 154.507812 142.660156 154.753906 144.375 C 154.785156 144.574219 154.808594 144.753906 154.84375 144.933594 C 155.089844 146.4375 155.144531 146.796875 152.226562 147.578125 C 152.449219 145.953125 152.09375 143.710938 151.078125 142.28125 C 151.070312 142.273438 151.0625 142.265625 151.0625 142.257812 C 151.175781 141.65625 151.226562 141.066406 151.226562 140.476562 Z M 150.800781 147.921875 C 146.011719 149.046875 139.476562 149.367188 139.15625 149.382812 C 139.015625 149.210938 138.746094 148.503906 138.804688 147.191406 C 138.875 145.460938 139.558594 143.0625 141.230469 141.96875 C 142.648438 141.058594 143.992188 140.707031 145.207031 140.707031 C 147.421875 140.707031 149.167969 141.886719 149.988281 143.046875 C 150.90625 144.335938 151.167969 146.691406 150.800781 147.921875 Z M 163.378906 115.699219 C 162.902344 116.75 155.703125 119.882812 150.203125 120.960938 C 150.027344 119.546875 149.773438 118.152344 149.457031 116.773438 C 149.382812 116.410156 149.019531 116.171875 148.660156 116.253906 C 148.300781 116.339844 148.0625 116.691406 148.144531 117.050781 C 148.144531 117.070312 148.152344 117.078125 148.152344 117.09375 C 148.519531 118.660156 148.789062 120.253906 148.964844 121.855469 L 148.964844 121.871094 C 148.964844 121.871094 148.964844 121.878906 148.964844 121.878906 C 149.382812 125.492188 149.554688 130.007812 149.496094 135.648438 C 148.890625 135.015625 148.152344 134.515625 147.332031 134.1875 C 146.921875 134.015625 146.503906 133.882812 146.070312 133.777344 C 144.09375 133.300781 142.109375 133.613281 140.507812 134.582031 C 140.625 132.855469 140.738281 129.71875 140.535156 125.222656 C 140.515625 124.851562 140.214844 124.566406 139.84375 124.582031 C 139.84375 124.582031 139.835938 124.582031 139.835938 124.582031 C 139.46875 124.597656 139.179688 124.910156 139.195312 125.285156 C 139.46875 131.265625 139.164062 134.851562 139.074219 135.746094 C 138.957031 135.871094 138.84375 136 138.746094 136.125 C 137.8125 137.28125 137.277344 138.710938 137.210938 140.203125 L 121.707031 142.808594 C 121.230469 142.890625 120.507812 143.003906 120.367188 142.929688 C 120.238281 142.816406 120.089844 142.019531 120.042969 141.757812 C 119.285156 137.667969 117.972656 125.269531 120.917969 117.167969 C 121.042969 116.8125 120.871094 116.429688 120.515625 116.304688 C 120.164062 116.183594 119.777344 116.355469 119.65625 116.707031 C 116.613281 125.089844 117.949219 137.808594 118.722656 142.003906 C 119.039062 143.75 119.457031 144.277344 120.574219 144.277344 C 120.769531 144.277344 120.976562 144.261719 121.171875 144.234375 C 121.386719 145.113281 123.148438 152.535156 125.320312 160.023438 C 125.855469 161.871094 127.101562 163.09375 129.035156 163.660156 C 129.875 163.90625 130.824219 164.023438 131.847656 164.023438 C 136.484375 164.023438 142.78125 161.730469 148.414062 159.113281 C 148.511719 160.96875 148.644531 165.164062 148.078125 169.1875 C 148.019531 169.597656 147.980469 169.976562 147.945312 170.351562 C 147.726562 172.503906 147.570312 173.183594 145.757812 173.183594 C 142.835938 173.183594 138.171875 173.25 133.226562 173.308594 C 123.738281 173.429688 112.988281 173.570312 108.898438 173.375 C 108.414062 173.347656 108.003906 173.144531 107.652344 172.742188 C 106.132812 171.015625 106.140625 166.371094 106.273438 164.71875 L 106.273438 164.671875 C 106.28125 164.070312 106.289062 163.390625 106.296875 162.652344 C 106.402344 152.765625 106.667969 129.613281 110.191406 118.414062 C 112.660156 110.566406 116.417969 106.042969 119.128906 103.636719 C 119.140625 103.628906 119.148438 103.621094 119.15625 103.621094 C 119.171875 103.605469 120.8125 102.152344 125.230469 103.769531 C 125.585938 103.898438 125.96875 103.71875 126.09375 103.375 C 126.222656 103.019531 126.042969 102.636719 125.699219 102.511719 C 125.699219 102.511719 125.699219 102.511719 125.691406 102.511719 C 123.707031 101.789062 122.171875 101.609375 121.023438 101.683594 C 121.335938 100.515625 122.140625 98.585938 123.019531 98.785156 C 123.238281 98.832031 123.542969 98.90625 123.910156 99.007812 C 123.9375 99.015625 123.96875 99.023438 123.992188 99.03125 C 127.644531 100 137.425781 103.019531 138.292969 103.816406 C 138.589844 104.144531 138.925781 104.679688 139.253906 105.222656 C 139.285156 105.328125 139.34375 105.417969 139.417969 105.5 C 139.941406 106.402344 140.378906 107.265625 140.378906 107.28125 C 140.542969 107.617188 140.945312 107.75 141.28125 107.585938 C 141.617188 107.421875 141.746094 107.019531 141.582031 106.683594 C 141.550781 106.625 141.15625 105.835938 140.65625 104.957031 C 140.871094 104.351562 141 103.472656 141.074219 102.527344 C 148.847656 101.757812 157.367188 101.109375 158.910156 101.355469 C 159.851562 103.359375 162.878906 110.761719 163.394531 114.226562 C 163.304688 114.433594 163.328125 114.679688 163.453125 114.867188 C 163.460938 114.875 163.460938 114.875 163.46875 114.882812 C 163.476562 115.214844 163.453125 115.5 163.378906 115.699219 Z M 187.292969 74.054688 C 186.839844 74.402344 186.445312 74.6875 186.101562 74.941406 C 184.542969 76.082031 183.839844 76.609375 183.476562 77.832031 C 183.421875 78.03125 177.507812 97.691406 172.507812 104.546875 C 169.054688 109.277344 166.011719 112.019531 164.550781 113.203125 C 163.730469 109.082031 160.96875 102.667969 160.199219 100.945312 C 161.027344 100.082031 163.320312 97.636719 165.757812 94.582031 C 168.898438 90.640625 178.425781 75.46875 179.132812 74.308594 C 179.5 73.710938 179.664062 72.617188 179.871094 71.238281 C 180.199219 69.070312 180.609375 66.378906 181.871094 64.859375 C 183.945312 62.363281 187.109375 61.421875 188.660156 61.246094 C 188.398438 61.519531 188.109375 61.765625 187.808594 61.988281 C 183.8125 64.941406 183.011719 67.765625 185.183594 71.140625 C 185.183594 71.148438 185.191406 71.15625 185.199219 71.164062 C 185.214844 71.183594 185.222656 71.207031 185.242188 71.222656 C 185.257812 71.238281 185.273438 71.257812 185.289062 71.273438 C 185.304688 71.289062 185.324219 71.296875 185.339844 71.3125 C 185.355469 71.328125 185.378906 71.347656 185.398438 71.355469 C 185.414062 71.363281 185.429688 71.371094 185.445312 71.378906 C 185.46875 71.386719 185.488281 71.402344 185.511719 71.410156 C 185.527344 71.421875 185.550781 71.429688 185.570312 71.429688 C 185.59375 71.4375 185.617188 71.4375 185.632812 71.445312 L 185.691406 71.453125 C 185.714844 71.453125 185.742188 71.453125 185.765625 71.453125 C 185.78125 71.453125 185.808594 71.453125 185.824219 71.445312 C 185.847656 71.445312 185.871094 71.4375 185.898438 71.4375 C 185.90625 71.4375 185.914062 71.4375 185.921875 71.429688 C 187.4375 71.027344 188.921875 69.859375 188.988281 69.8125 C 189.046875 69.769531 189.085938 69.710938 189.128906 69.65625 C 190.324219 67.855469 190.996094 67.773438 191.0625 67.773438 C 191.085938 67.765625 191.113281 67.773438 191.136719 67.792969 C 191.195312 68.660156 189.382812 72.472656 187.292969 74.054688 Z M 196.558594 69.136719 C 196.121094 71.265625 194.894531 72.996094 193.351562 73.652344 C 191.34375 74.507812 190.023438 74.269531 189.316406 73.980469 C 190.988281 72.117188 192.285156 69.449219 192.449219 68.121094 C 192.507812 67.636719 192.433594 67.273438 192.226562 67.019531 C 191.933594 66.640625 191.480469 66.429688 190.996094 66.445312 C 190.09375 66.484375 189.101562 67.289062 188.0625 68.832031 C 187.808594 69.03125 186.945312 69.636719 186.035156 69.992188 C 184.824219 67.855469 184.90625 65.820312 188.601562 63.085938 C 189.503906 62.421875 190.046875 61.824219 190.242188 61.296875 C 191.105469 61.265625 192.835938 61.421875 194.566406 62.890625 C 195.984375 64.410156 195.828125 65.691406 195.613281 66.320312 L 194.097656 65.902344 C 193.738281 65.804688 193.367188 66.007812 193.269531 66.371094 C 193.171875 66.730469 193.375 67.101562 193.738281 67.199219 L 195.792969 67.773438 C 195.851562 67.792969 195.917969 67.800781 195.976562 67.800781 C 196.195312 67.800781 196.402344 67.691406 196.523438 67.511719 C 196.589844 67.414062 196.648438 67.316406 196.695312 67.214844 C 196.738281 67.855469 196.6875 68.503906 196.558594 69.136719 Z M 196.558594 69.136719 " fill-opacity="1" fill-rule="nonzero"/><path fill="#292929" d="M 147.960938 77.742188 C 147.960938 77.921875 147.933594 78.097656 147.875 78.261719 C 147.816406 78.429688 147.734375 78.578125 147.625 78.707031 C 147.515625 78.832031 147.390625 78.933594 147.25 79 C 147.105469 79.070312 146.960938 79.105469 146.804688 79.105469 C 146.652344 79.105469 146.503906 79.070312 146.363281 79 C 146.222656 78.933594 146.097656 78.832031 145.988281 78.707031 C 145.878906 78.578125 145.796875 78.429688 145.738281 78.261719 C 145.679688 78.097656 145.648438 77.921875 145.648438 77.742188 C 145.648438 77.5625 145.679688 77.386719 145.738281 77.21875 C 145.796875 77.054688 145.878906 76.90625 145.988281 76.777344 C 146.097656 76.652344 146.222656 76.550781 146.363281 76.484375 C 146.503906 76.414062 146.652344 76.378906 146.804688 76.378906 C 146.960938 76.378906 147.105469 76.414062 147.25 76.484375 C 147.390625 76.550781 147.515625 76.652344 147.625 76.777344 C 147.734375 76.90625 147.816406 77.054688 147.875 77.21875 C 147.933594 77.386719 147.960938 77.5625 147.960938 77.742188 Z M 147.960938 77.742188 " fill-opacity="1" fill-rule="nonzero"/><path fill="#292929" d="M 146.960938 74.308594 C 146.898438 74.328125 145.765625 74.648438 144.960938 76.222656 C 144.789062 76.550781 144.378906 76.675781 144.050781 76.503906 C 143.730469 76.328125 143.609375 75.9375 143.765625 75.617188 C 144.871094 73.441406 146.578125 73.019531 146.652344 73.003906 C 147.011719 72.921875 147.371094 73.144531 147.453125 73.503906 C 147.542969 73.859375 147.324219 74.21875 146.960938 74.308594 Z M 146.960938 74.308594 " fill-opacity="1" fill-rule="nonzero"/><path fill="#292929" d="M 133.660156 87.160156 C 133.441406 87.453125 133.023438 87.519531 132.726562 87.296875 C 132.226562 86.921875 131.914062 86.421875 131.839844 85.855469 C 131.695312 84.769531 132.414062 83.816406 132.496094 83.710938 C 132.726562 83.414062 133.144531 83.367188 133.441406 83.597656 C 133.734375 83.824219 133.785156 84.246094 133.554688 84.539062 C 133.433594 84.703125 133.113281 85.238281 133.167969 85.679688 C 133.1875 85.8125 133.242188 86.019531 133.53125 86.222656 C 133.824219 86.4375 133.890625 86.863281 133.660156 87.160156 Z M 133.660156 87.160156 " fill-opacity="1" fill-rule="nonzero"/><path fill="#292929" d="M 221.894531 58.703125 C 217.6875 58.703125 214.277344 62.117188 214.277344 66.328125 C 214.277344 70.542969 217.6875 73.957031 221.894531 73.957031 C 226.101562 73.957031 229.515625 70.542969 229.515625 66.328125 C 229.515625 62.125 226.101562 58.710938 221.894531 58.703125 Z M 221.894531 72.617188 C 218.425781 72.617188 215.621094 69.8125 215.621094 66.339844 C 215.621094 62.863281 218.425781 60.058594 221.894531 60.058594 C 225.363281 60.058594 228.167969 62.863281 228.167969 66.339844 C 228.167969 69.804688 225.355469 72.609375 221.894531 72.617188 Z M 221.894531 72.617188 " fill-opacity="1" fill-rule="nonzero"/><path fill="#292929" d="M 307.679688 52.71875 L 215.6875 52.816406 C 212.113281 52.816406 209.21875 55.714844 209.21875 59.292969 L 209.21875 73.382812 C 209.226562 76.960938 212.121094 79.859375 215.6875 79.859375 L 307.6875 79.761719 C 311.253906 79.753906 314.148438 76.855469 314.15625 73.285156 L 314.15625 59.195312 C 314.148438 55.617188 311.246094 52.71875 307.679688 52.71875 Z M 312.804688 73.277344 C 312.804688 76.109375 310.507812 78.40625 307.679688 78.40625 L 243.839844 78.308594 L 215.679688 78.503906 C 212.851562 78.503906 210.554688 76.207031 210.554688 73.375 L 210.554688 59.292969 C 210.554688 56.460938 212.851562 54.164062 215.679688 54.164062 L 307.671875 54.0625 C 310.5 54.0625 312.796875 56.363281 312.796875 59.195312 Z M 312.804688 73.277344 " fill-opacity="1" fill-rule="nonzero"/><path fill="#292929" d="M 221.894531 90.550781 C 217.6875 90.550781 214.277344 93.964844 214.277344 98.175781 C 214.277344 102.390625 217.6875 105.804688 221.894531 105.804688 C 226.101562 105.804688 229.515625 102.390625 229.515625 98.175781 C 229.515625 93.972656 226.101562 90.558594 221.894531 90.550781 Z M 221.894531 104.464844 C 218.425781 104.464844 215.621094 101.65625 215.621094 98.183594 C 215.621094 94.710938 218.425781 91.90625 221.894531 91.90625 C 225.363281 91.90625 228.167969 94.710938 228.167969 98.183594 C 228.167969 101.648438 225.355469 104.457031 221.894531 104.464844 Z M 221.894531 104.464844 " fill-opacity="1" fill-rule="nonzero"/><path fill="#292929" d="M 307.679688 84.554688 L 215.6875 84.65625 C 212.113281 84.65625 209.21875 87.554688 209.21875 91.132812 L 209.21875 105.222656 C 209.21875 108.800781 212.121094 111.699219 215.6875 111.699219 L 307.6875 111.601562 C 311.253906 111.59375 314.148438 108.695312 314.15625 105.121094 L 314.15625 91.035156 C 314.148438 87.460938 311.253906 84.566406 307.679688 84.554688 Z M 312.804688 105.132812 C 312.804688 107.964844 310.507812 110.261719 307.679688 110.261719 L 307.671875 110.261719 L 215.679688 110.359375 C 212.851562 110.359375 210.554688 108.0625 210.554688 105.230469 L 210.554688 91.132812 C 210.554688 88.300781 212.851562 86 215.679688 86 L 307.671875 85.902344 C 310.5 85.910156 312.796875 88.203125 312.796875 91.035156 Z M 312.804688 105.132812 " fill-opacity="1" fill-rule="nonzero"/><path fill="#292929" d="M 221.894531 122.398438 C 217.6875 122.398438 214.277344 125.8125 214.277344 130.023438 C 214.277344 134.234375 217.6875 137.652344 221.894531 137.652344 C 226.101562 137.652344 229.515625 134.234375 229.515625 130.023438 C 229.515625 125.820312 226.101562 122.40625 221.894531 122.398438 Z M 221.894531 136.3125 C 218.425781 136.3125 215.621094 133.503906 215.621094 130.03125 C 215.621094 126.558594 218.425781 123.75 221.894531 123.75 C 225.363281 123.75 228.167969 126.558594 228.167969 130.03125 C 228.167969 133.496094 225.355469 136.304688 221.894531 136.3125 Z M 221.894531 136.3125 " fill-opacity="1" fill-rule="nonzero"/><path fill="#292929" d="M 307.679688 116.410156 L 215.6875 116.511719 C 212.113281 116.519531 209.226562 119.410156 209.21875 122.988281 L 209.21875 137.078125 C 209.226562 140.65625 212.121094 143.554688 215.6875 143.554688 L 307.6875 143.457031 C 311.253906 143.449219 314.148438 140.550781 314.15625 136.976562 L 314.15625 122.890625 C 314.148438 119.308594 311.253906 116.410156 307.679688 116.410156 Z M 312.804688 136.976562 C 312.804688 139.8125 310.507812 142.109375 307.679688 142.109375 L 307.671875 142.109375 L 215.679688 142.207031 C 212.851562 142.207031 210.554688 139.910156 210.554688 137.078125 L 210.554688 122.988281 C 210.554688 120.15625 212.851562 117.855469 215.679688 117.855469 L 307.671875 117.757812 C 310.5 117.757812 312.796875 120.058594 312.796875 122.890625 Z M 312.804688 136.976562 " fill-opacity="1" fill-rule="nonzero"/><path fill="#292929" d="M 225.144531 127.554688 L 221.894531 132.824219 C 221.789062 132.996094 221.617188 133.109375 221.421875 133.136719 C 221.386719 133.144531 221.355469 133.144531 221.320312 133.144531 C 221.15625 133.144531 220.992188 133.085938 220.871094 132.972656 L 218.15625 130.523438 C 217.886719 130.269531 217.878906 129.84375 218.140625 129.574219 C 218.386719 129.316406 218.789062 129.292969 219.058594 129.523438 L 221.175781 131.429688 L 223.996094 126.847656 C 224.191406 126.527344 224.601562 126.429688 224.921875 126.625 C 225.234375 126.8125 225.332031 127.234375 225.144531 127.554688 Z M 225.144531 127.554688 " fill-opacity="1" fill-rule="nonzero"/><path fill="#292929" d="M 148.183594 142.839844 C 147.660156 144.367188 146.378906 146.699219 146.324219 146.796875 C 146.199219 147.011719 145.976562 147.140625 145.730469 147.140625 C 145.667969 147.140625 145.601562 147.132812 145.535156 147.117188 L 143.296875 146.445312 C 142.945312 146.335938 142.738281 145.960938 142.847656 145.605469 C 142.953125 145.253906 143.328125 145.050781 143.683594 145.15625 L 145.386719 145.671875 C 145.789062 144.917969 146.542969 143.429688 146.898438 142.40625 C 147.019531 142.050781 147.398438 141.863281 147.75 141.988281 C 148.117188 142.101562 148.308594 142.488281 148.183594 142.839844 Z M 148.183594 142.839844 " fill-opacity="1" fill-rule="nonzero"/></svg>