<svg width="150" height="175" viewBox="0 0 150 175" fill="none" xmlns="http://www.w3.org/2000/svg">
<g clip-path="url(#clip0_7_184)">
<path d="M46.8875 0H63V7.86042H53.625V15.7208H63V23.5812H46.8875V0ZM66.2187 0H82.3374V6.83958H72.9624V8.20312H82.3374V23.924H66.2187V16.749H75.5937V15.3781H66.2187V0ZM85.5624 0H101.669V6.83958H92.2937V8.20312H101.669V23.924H85.5624V16.749H94.9374V15.3781H85.5624V0Z" fill="black"/>
<path fill-rule="evenodd" clip-rule="evenodd" d="M74.9438 175L31.5437 160.942L18.75 34.3948H131.25L118.463 160.927L74.9438 175ZM44.0437 91.6781L45.2375 107.195H91.3438L89.8 127.32L74.9625 132.001H74.95L60.1375 127.334L59.1875 114.96H45.8313L47.6938 139.329L74.9438 148.152L102.237 139.329L105.562 95.8416L105.887 91.6781L108.287 60.2583H41.65L42.8625 75.7823H93.7125L92.5 91.6781H44.0437Z" fill="black"/>
</g>
<defs>
<clipPath id="clip0_7_184">
<rect width="150" height="175" fill="white"/>
</clipPath>
</defs>
</svg>
