<svg width="70" height="66" viewBox="0 0 70 66" fill="none" xmlns="http://www.w3.org/2000/svg">
<path d="M55.4166 11H14.5833C12.2626 11 10.037 11.8692 8.39607 13.4164C6.75512 14.9635 5.83325 17.062 5.83325 19.25V46.75C5.83325 48.938 6.75512 51.0365 8.39607 52.5836C10.037 54.1308 12.2626 55 14.5833 55H55.4166C57.7372 55 59.9628 54.1308 61.6038 52.5836C63.2447 51.0365 64.1666 48.938 64.1666 46.75V19.25C64.1666 17.062 63.2447 14.9635 61.6038 13.4164C59.9628 11.8692 57.7372 11 55.4166 11ZM55.4166 16.5L36.4583 28.7925C36.0149 29.0339 35.5119 29.1609 34.9999 29.1609C34.4879 29.1609 33.985 29.0339 33.5416 28.7925L14.5833 16.5H55.4166Z" fill="black"/>
</svg>
