<svg width="59" height="67" viewBox="0 0 59 67" fill="none" xmlns="http://www.w3.org/2000/svg">
<path d="M13.2487 43.7384C19.6446 44.1716 21.0115 44.0145 21.0115 45.3009C21.0115 47.9181 12.3795 47.9259 12.3795 45.4998C12.3808 44.8337 12.8128 44.2697 13.2487 43.7384ZM16.9293 28.475C12.6771 28.475 12.4849 34.2943 16.8305 34.2943C21.1116 34.2943 21.0062 28.475 16.9293 28.475ZM58.9974 10.4688V56.5312C58.9974 58.1971 58.3315 59.7948 57.1461 60.9728C55.9607 62.1507 54.3529 62.8125 52.6765 62.8125H6.32333C4.64693 62.8125 3.03918 62.1507 1.85379 60.9728C0.66839 59.7948 0.00244141 58.1971 0.00244141 56.5312L0.00244141 10.4688C0.00244141 8.80286 0.66839 7.2052 1.85379 6.02724C3.03918 4.84927 4.64693 4.1875 6.32333 4.1875H52.6765C54.3529 4.1875 55.9607 4.84927 57.1461 6.02724C58.3315 7.2052 58.9974 8.80286 58.9974 10.4688ZM29.1049 19.5386C29.1049 21.4348 30.2084 22.5327 32.1152 22.5327C34.0562 22.5327 35.1611 21.4348 35.1611 19.5386C35.1611 17.6425 34.0589 16.6191 32.1178 16.6191C30.211 16.6191 29.1049 17.6451 29.1049 19.5386ZM26.2315 25.5176H19.7065C16.4144 24.6604 8.96625 24.8829 8.96625 31.6353C8.96625 34.0954 10.2041 35.8228 11.8436 36.6223C9.77743 38.5028 8.79901 39.3887 8.79901 40.6449C8.79901 41.5439 9.16641 42.3749 10.2713 42.8381C9.09926 43.9373 8.42766 44.733 8.42766 46.23C8.43029 48.8563 10.7387 50.3809 16.7949 50.3809C22.6181 50.3809 25.9958 48.2204 25.9958 44.3967C25.9958 39.598 22.2783 39.7747 13.516 39.2434L14.6195 37.486C16.8581 38.1062 24.3892 38.3012 24.3892 31.9336C24.3892 30.4039 23.7532 29.34 23.1514 28.5745L26.2302 28.3415L26.2315 25.5176ZM37.3378 39.8912L35.6259 39.6582C35.1229 39.5915 35.09 39.5274 35.09 38.9922V25.193H28.1633L27.7959 27.8848C29.87 28.6111 30.0346 28.5208 30.0346 29.2157V38.9961C30.0346 39.7315 29.9937 39.5954 27.7959 39.8951V42.5201H37.3326L37.3378 39.8912ZM50.5696 41.2207L49.6649 38.2934C44.275 40.3047 44.6806 36.6694 44.6806 36.1041V28.1583H49.6649V24.8332H44.9479C44.57 24.8332 44.6845 25.1629 44.6845 19.7781H41.5004C41.133 23.4029 39.9623 24.8659 37.0231 25.1983V28.1583C39.7187 28.1583 39.6331 28.0471 39.6331 28.4907V37.202C39.6331 40.9603 41.1383 42.5555 45.1204 42.5555C47.0233 42.5555 49.1302 41.9234 50.5696 41.2207Z" fill="black"/>
</svg>
