<svg width="150" height="175" viewBox="0 0 150 175" fill="none" xmlns="http://www.w3.org/2000/svg">
<g clip-path="url(#clip0_7_179)">
<path d="M31.75 0H38.5125V7.79479H44.7V0H51.4625V23.5958H44.7V15.699H38.5125V23.5958H31.7562V0H31.75ZM60.35 7.82396H54.4V0H73.0687V7.82396H67.1125V23.5958H60.35V7.82396ZM76.0312 0H83.0813L87.4188 8.29062L91.75 0H98.8V23.5958H92.0687V11.9L87.4188 20.2927H87.3L82.6437 11.9073V23.5958H76.0312V0ZM102.163 0H108.931V15.801H118.431V23.6031H102.163V0Z" fill="black"/>
<path fill-rule="evenodd" clip-rule="evenodd" d="M31.5375 160.942L18.75 34.3948H131.25L118.456 160.927L74.9375 175L31.5375 160.942ZM57.3937 91.6708L56.1813 75.775H107.088L108.275 60.2583H41.65L45.2375 107.195H91.3438L89.8 127.32L74.9625 132.001H74.95L60.1375 127.334L59.1875 114.96H45.825L47.6875 139.329L74.9375 148.152L102.231 139.329L105.556 95.8416L105.881 91.6781H57.3937V91.6708Z" fill="black"/>
</g>
<defs>
<clipPath id="clip0_7_179">
<rect width="150" height="175" fill="white"/>
</clipPath>
</defs>
</svg>
