<svg width="80" height="73" viewBox="0 0 80 73" fill="none" xmlns="http://www.w3.org/2000/svg">
<path d="M69.8233 25.2611C69.7897 22.9574 69.3171 20.6766 68.4267 18.5208C67.6545 16.7023 66.4751 15.0508 64.9639 13.6718C63.4527 12.2928 61.6428 11.2167 59.65 10.5121C57.3178 9.71318 54.8539 9.28122 52.3633 9.23455C49.1567 9.10376 48.14 9.06726 40 9.06726C31.86 9.06726 30.8167 9.06726 27.6333 9.23455C25.1439 9.28156 22.6811 9.71352 20.35 10.5121C18.3568 11.2162 16.5467 12.2922 15.0354 13.6712C13.5241 15.0503 12.345 16.702 11.5733 18.5208C10.6961 20.6473 10.2237 22.895 10.1767 25.1668C10.0333 28.0959 9.98999 29.0236 9.98999 36.4514C9.98999 43.8791 9.98999 44.8281 10.1767 47.736C10.2267 50.0111 10.6967 52.2559 11.5733 54.3881C12.3462 56.2063 13.5263 57.8574 15.0381 59.2358C16.5499 60.6143 18.3602 61.6899 20.3533 62.3938C22.6781 63.2247 25.1412 63.6876 27.6367 63.7625C30.8467 63.8933 31.8633 63.9328 40.0033 63.9328C48.1433 63.9328 49.1867 63.9328 52.37 63.7625C54.8605 63.7178 57.3245 63.2868 59.6567 62.4881C61.649 61.7826 63.4583 60.7062 64.9695 59.3273C66.4806 57.9484 67.6603 56.2973 68.4333 54.4793C69.31 52.3502 69.78 50.1054 69.83 47.8272C69.9733 44.9011 70.0166 43.9734 70.0166 36.5426C70.01 29.1149 70.01 28.172 69.8233 25.2611ZM39.98 50.4978C31.4667 50.4978 24.57 44.2046 24.57 36.4362C24.57 28.6678 31.4667 22.3746 39.98 22.3746C44.067 22.3746 47.9866 23.856 50.8765 26.4931C53.7664 29.1302 55.39 32.7068 55.39 36.4362C55.39 40.1656 53.7664 43.7422 50.8765 46.3792C47.9866 49.0163 44.067 50.4978 39.98 50.4978ZM56.0033 25.1333C55.5313 25.1337 55.0639 25.0492 54.6277 24.8846C54.1915 24.7199 53.7952 24.4784 53.4615 24.1739C53.1277 23.8693 52.863 23.5077 52.6826 23.1097C52.5022 22.7117 52.4095 22.2851 52.41 21.8544C52.41 21.424 52.5029 20.9979 52.6834 20.6002C52.8639 20.2026 53.1284 19.8413 53.462 19.537C53.7955 19.2326 54.1914 18.9912 54.6272 18.8265C55.0629 18.6618 55.53 18.577 56.0017 18.577C56.4733 18.577 56.9404 18.6618 57.3761 18.8265C57.8119 18.9912 58.2078 19.2326 58.5413 19.537C58.8749 19.8413 59.1394 20.2026 59.3199 20.6002C59.5004 20.9979 59.5933 21.424 59.5933 21.8544C59.5933 23.6673 57.9867 25.1333 56.0033 25.1333Z" fill="black"/>
<path d="M39.98 45.5703C45.5083 45.5703 49.99 41.4808 49.99 36.4361C49.99 31.3915 45.5083 27.302 39.98 27.302C34.4516 27.302 29.97 31.3915 29.97 36.4361C29.97 41.4808 34.4516 45.5703 39.98 45.5703Z" fill="black"/>
</svg>
