<svg width="150" height="175" viewBox="0 0 150 175" fill="none" xmlns="http://www.w3.org/2000/svg">
<g clip-path="url(#clip0_7_202)">
<path d="M83.1311 40.8406C79.2061 29.699 79.7561 17.1646 85.4249 7.08021L89.6624 0C81.8249 17.1354 89.2874 38.1792 101.287 49.2115C104.498 52.1435 108.078 54.48 111.9 56.1385C112.925 56.576 114.087 57.0427 115.15 57.3562C128.562 61.2937 139.494 58.574 146 47.2281C145.8 47.5781 145.544 48.1323 145.219 48.8323C142.319 55.1031 133.831 73.4562 109.219 67.6958C108.75 67.5865 108.3 67.4042 107.85 67.2365L107.45 67.076L107.162 66.9667C107.03 66.9131 106.896 66.8621 106.762 66.8135C106.398 66.6672 106.035 66.514 105.675 66.3542C95.7687 61.95 87.2749 52.675 83.1311 40.8406Z" fill="black"/>
<path d="M50.75 21.6271C41.1438 38.3615 41.6688 60.7688 49.1625 78.4729C50.5481 81.7673 52.1399 84.938 53.925 87.9594C55.2313 90.2417 56.6688 92.7719 58.35 94.5365C59.0438 95.4625 59.7688 96.3594 60.5063 97.2417L60.9313 97.7521L61.075 97.9198C61.8212 98.7999 62.586 99.6581 63.3688 100.494L63.375 100.501L63.3875 100.516C64.3323 101.513 65.3014 102.478 66.2938 103.41L66.5438 103.644C67.4188 104.46 68.3125 105.263 69.2313 106.028L69.2688 106.057L69.3125 106.094C69.6063 106.342 69.9063 106.582 70.2063 106.816L70.5375 107.078C70.7337 107.23 70.9275 107.385 71.1188 107.545C71.775 108.055 72.4375 108.544 73.1125 109.025L73.3 109.149L73.3938 109.222C74.1176 109.725 74.849 110.214 75.5875 110.688L75.7813 110.804L76.0313 110.965C76.3563 111.169 76.6813 111.38 77.0188 111.577L77.2063 111.686C78.1731 112.261 79.1526 112.805 80.1438 113.32L80.3438 113.415C81.2741 113.893 82.2139 114.345 83.1625 114.771L83.35 114.851C83.9938 115.143 84.6375 115.405 85.2875 115.668L85.6125 115.799L86.1625 116.01C86.4063 116.098 86.65 116.2 86.8876 116.295C87.5688 116.572 88.25 116.842 88.9625 116.988C138.55 126.933 150 80.7042 150 80.7042C139.681 98.7 119.694 107.29 98.3688 100.581C97.4245 100.28 96.4867 99.9519 95.5563 99.5969C95.3044 99.5063 95.0544 99.409 94.8063 99.3052L94.7125 99.2688C94.054 99.011 93.3997 98.7387 92.75 98.4521L92.7313 98.4375C91.6528 97.9614 90.5858 97.4508 89.5313 96.9063L89.1813 96.724C87.9525 96.0758 86.7434 95.3778 85.5563 94.6313L85.2938 94.4709L84.5438 94.0042C83.8591 93.5579 83.1818 93.096 82.5125 92.6188C81.1905 91.6769 79.898 90.6797 78.6375 89.6292C77.7273 88.8625 76.8332 88.0699 75.9563 87.2521L75.7375 87.0407C75.6098 86.9201 75.4827 86.7985 75.3563 86.6761C66.0188 77.7511 58.6188 65.5521 55.1063 51.7271C51.4188 37.3771 52.2126 21.2771 58.6 8.21045L50.75 21.6271Z" fill="black"/>
<path d="M9.52497 41.1031C-3.75003 64.2177 -2.10003 94.2958 8.04372 118.854C8.23122 119.328 8.43747 119.795 8.63747 120.254L8.78747 120.604L8.97497 121.034C9.13217 121.417 9.29891 121.794 9.47497 122.165L9.55622 122.347L9.99372 123.295L10.0875 123.492C10.4 124.162 10.725 124.833 11.0562 125.504L11.1625 125.723C11.6633 126.742 12.1864 127.746 12.7312 128.734L12.8437 128.953L13.2125 129.631C13.7375 130.579 14.275 131.534 14.8375 132.475V132.482C14.8508 132.505 14.8654 132.527 14.8812 132.548L15.0312 132.789L15.1562 132.993C15.6437 133.795 16.1375 134.597 16.6437 135.384L17.2062 136.245C18.4313 138.097 19.6984 139.911 21.0062 141.684L21.0437 141.735L21.075 141.772L21.1187 141.83C22.4447 143.573 23.8162 145.268 25.2312 146.912L25.4187 147.131L25.8625 147.642C26.5708 148.449 27.2917 149.242 28.025 150.019L28.2312 150.237L28.3937 150.398C29.1759 151.213 29.9677 152.015 30.7687 152.804L31.1187 153.147C31.65 153.657 32.1875 154.168 32.7312 154.664L33.5875 155.458C34.1875 155.991 34.7875 156.516 35.3937 157.026L35.4937 157.114L36.0562 157.595L36.2312 157.741C36.7812 158.207 37.3375 158.645 37.9 159.082L37.9875 159.155C38.2397 159.353 38.4897 159.555 38.7375 159.76C39.7808 160.559 40.8373 161.335 41.9062 162.086L42.2437 162.32C43.19 162.972 44.1465 163.604 45.1125 164.216L45.4437 164.427L45.8125 164.66C46.1812 164.894 46.5437 165.127 46.9187 165.353L47.075 165.441L47.2625 165.55L47.475 165.674C47.6 165.747 47.7312 165.82 47.8625 165.907C48.6375 166.352 49.4125 166.79 50.2 167.22L50.4937 167.373L50.6937 167.482C52.6468 168.52 54.6337 169.469 56.65 170.326L56.7125 170.348L56.975 170.465C58.3998 171.062 59.8378 171.617 61.2875 172.127C62.0125 172.411 62.7437 172.689 63.4937 172.856C127.725 187.046 146.381 126.117 146.381 126.117C130.712 150.835 102.9 157.361 76.5437 150.099C75.552 149.818 74.5719 149.485 73.6062 149.1L72.8687 148.83C71.9187 148.48 70.975 148.101 70.0375 147.715L69.65 147.547C68.8062 147.182 67.9812 146.818 67.15 146.424L66.45 146.089C65.545 145.656 64.6469 145.204 63.7562 144.732L63.4687 144.586C62.6218 144.128 61.7801 143.656 60.9437 143.172L60.6875 143.011C60.5537 142.937 60.4204 142.862 60.2875 142.785L58.95 141.961L58.525 141.699C58.3859 141.61 58.2463 141.523 58.1062 141.436L57.3562 140.955C56.6437 140.496 55.9437 140.007 55.2437 139.519L54.975 139.336L54.5375 139.045C53.4495 138.262 52.3743 137.455 51.3125 136.624L51.0437 136.405C48.3763 134.33 45.8195 132.068 43.3875 129.631C42.6444 128.898 41.911 128.152 41.1875 127.393L41.0875 127.283C40.1374 126.264 39.2039 125.223 38.2875 124.162C37.7582 123.552 37.2373 122.933 36.725 122.303L36.5125 122.055C35.703 121.068 34.9111 120.062 34.1375 119.036L34.1 118.993L34.0875 118.971C33.425 118.096 32.775 117.192 32.1375 116.287L31.625 115.551C30.9707 114.604 30.331 113.644 29.7062 112.671C29.1562 111.796 28.6125 110.935 28.0812 110.053C13.4562 85.8885 8.19997 52.551 19.8937 25.1781L9.52497 41.1031Z" fill="black"/>
</g>
<defs>
<clipPath id="clip0_7_202">
<rect width="150" height="175" fill="white"/>
</clipPath>
</defs>
</svg>
