<svg width="150" height="175" viewBox="0 0 150 175" fill="none" xmlns="http://www.w3.org/2000/svg">
<path d="M133.927 10.9375H16.0733C7.20087 10.9375 0.00244141 18.2861 0.00244141 27.3438V147.656C0.00244141 156.714 7.20087 164.062 16.0733 164.062H133.927C142.799 164.062 149.998 156.714 149.998 147.656V27.3438C149.998 18.2861 142.799 10.9375 133.927 10.9375ZM81.6292 130.361C81.6292 145.264 73.0581 152.065 60.5697 152.065C49.2865 152.065 42.7577 146.118 39.4096 138.906L50.8936 131.831C53.1034 135.83 55.1123 139.214 59.967 139.214C64.5874 139.214 67.5337 137.368 67.5337 130.156V81.2451H81.6292V130.361ZM114.976 152.065C101.885 152.065 93.4146 145.708 89.2964 137.368L100.78 130.601C103.794 135.625 107.744 139.351 114.675 139.351C120.501 139.351 124.251 136.377 124.251 132.241C124.251 127.319 120.434 125.576 113.972 122.671L110.456 121.133C100.278 116.724 93.5485 111.152 93.5485 99.4287C93.5485 88.6279 101.617 80.4248 114.173 80.4248C123.146 80.4248 129.574 83.6035 134.194 91.9434L123.213 99.1211C120.802 94.7119 118.191 92.9688 114.139 92.9688C110.021 92.9688 107.41 95.6348 107.41 99.1211C107.41 103.428 110.021 105.171 116.081 107.871L119.597 109.409C131.583 114.639 138.313 120.005 138.313 132.036C138.313 144.956 128.335 152.065 114.976 152.065Z" fill="black"/>
</svg>
