<svg width="59" height="67" viewBox="0 0 59 67" fill="none" xmlns="http://www.w3.org/2000/svg">
<path d="M54.7835 4.1875H4.2032C1.88554 4.1875 0.00244141 6.08496 0.00244141 8.41426V58.5857C0.00244141 60.915 1.88554 62.8125 4.2032 62.8125H54.7835C57.1011 62.8125 58.9974 60.915 58.9974 58.5857V8.41426C58.9974 6.08496 57.1011 4.1875 54.7835 4.1875ZM17.8326 54.4375H9.08872V26.4598H17.8458V54.4375H17.8326ZM13.4607 22.6387C10.6558 22.6387 8.39079 20.3748 8.39079 17.6006C8.39079 14.8264 10.6558 12.5625 13.4607 12.5625C16.2524 12.5625 18.5305 14.8264 18.5305 17.6006C18.5305 20.3879 16.2656 22.6387 13.4607 22.6387ZM50.6091 54.4375H41.8652V40.8281C41.8652 37.5828 41.7993 33.4084 37.322 33.4084C32.7657 33.4084 32.0678 36.9416 32.0678 40.5926V54.4375H23.3239V26.4598H31.7122V30.2809H31.8308C33.0028 28.0824 35.8603 25.7662 40.1138 25.7662C48.963 25.7662 50.6091 31.5633 50.6091 39.1008V54.4375Z" fill="black"/>
</svg>
