<svg width="150" height="175" viewBox="0 0 150 175" fill="none" xmlns="http://www.w3.org/2000/svg">
<path d="M85.875 30.8437C80.625 23.5521 76.0625 16.2604 75.1875 14.6562H75C74.125 16.1875 69.5625 23.5521 64.3125 30.8437C19.3125 97.8542 71.4375 143.062 71.4375 143.062L71.875 143.427C72.25 150.354 73.25 160.417 73.25 160.417H77.125C77.125 160.417 78.0625 150.427 78.4375 143.427L78.875 142.99C78.875 142.99 130.875 97.8542 85.875 30.8437ZM75 142.042C73.9046 140.992 72.8998 139.82 72 138.542L75 65.625L77.8125 138.542C76.9693 139.807 76.0278 140.978 75 142.042Z" fill="black"/>
</svg>
