<svg width="150" height="175" viewBox="0 0 150 175" fill="none" xmlns="http://www.w3.org/2000/svg">
<g clip-path="url(#clip0_7_208)">
<path d="M74.4625 0C36.375 0 38.75 19.3667 38.75 19.3667L38.7937 39.4333H75.1312V45.4563H24.375C24.375 45.4563 0 42.2115 0 87.274C0 132.336 21.2688 130.732 21.2688 130.732H33.9562V109.827C33.9562 109.827 33.275 84.8896 54.8937 84.8896H90.9313C90.9313 84.8896 111.181 85.2688 111.181 61.9354V23.3479C111.181 23.3479 114.25 0 74.4563 0H74.4625ZM54.425 13.4896C58.0375 13.4896 60.9625 16.9167 60.9625 21.1604C60.9625 25.3969 58.0375 28.824 54.425 28.824C50.8063 28.824 47.8875 25.3969 47.8875 21.1604C47.8875 16.9167 50.8063 13.4896 54.425 13.4896Z" fill="black"/>
<path d="M75.5437 175C113.619 175 111.244 155.633 111.244 155.633L111.2 135.567H74.8625V129.544H125.631C125.631 129.544 150.006 132.789 150.006 87.726C150.006 42.6635 128.731 44.2677 128.731 44.2677H116.044V65.1729C116.044 65.1729 116.725 90.1104 95.1062 90.1104H59.075C59.075 90.1104 38.825 89.7312 38.825 113.065V151.652C38.825 151.652 35.75 175 75.5437 175ZM95.5812 161.51C91.9625 161.51 89.0437 158.083 89.0437 153.84C89.0437 149.603 91.9625 146.176 95.5812 146.176C99.1937 146.176 102.119 149.603 102.119 153.84C102.119 158.083 99.1937 161.51 95.5812 161.51Z" fill="black"/>
</g>
<defs>
<clipPath id="clip0_7_208">
<rect width="150" height="175" fill="white"/>
</clipPath>
</defs>
</svg>
