<svg width="150" height="175" viewBox="0 0 150 175" fill="none" xmlns="http://www.w3.org/2000/svg">
<path d="M149.998 77.4512C149.998 40.708 116.41 10.9375 75 10.9375C33.5899 10.9375 0.00231934 40.708 0.00231934 77.4512C0.00231934 110.195 26.671 137.402 61.8077 142.905V164.062H87.3921V143.042C93.6656 142.119 99.6809 140.513 105.309 138.291L115.661 164.062H144.576L127.176 125.2C141.246 113.101 149.998 96.1816 149.998 77.4512ZM29.4851 82.4072C29.4851 57.2852 55.0179 36.9482 86.4885 36.9482C117.959 36.9482 141.194 50.8594 141.194 82.4072C141.194 99.5312 134.353 111.46 123.045 118.774C122.425 118.228 121.832 117.783 121.393 117.51C118.759 115.732 114.216 113.921 114.216 113.921C114.216 113.921 136.573 111.733 136.573 82.2363C136.573 52.7393 113.183 52.1924 113.183 52.1924H61.8077V123.389C42.6774 116.04 29.4851 100.454 29.4851 82.4072ZM87.5986 95.498V76.4941C102.521 76.4941 110.266 74.1699 110.266 85.8252C110.266 98.3008 100.404 95.498 87.5986 95.498ZM87.3663 120.278H94.2335C97.0218 120.278 99.1129 124.277 100.43 126.841C96.2731 127.49 91.91 127.798 87.3663 127.832V120.278Z" fill="black"/>
</svg>
