<svg width="150" height="175" viewBox="0 0 150 175" fill="none" xmlns="http://www.w3.org/2000/svg">
<path d="M67.5796 0C64.9171 0.0875 62.3061 1.56406 60.1077 4.41328C58.889 6.01016 57.8624 7.77656 57.0093 9.68516C54.8108 14.525 54.3702 19.9937 53.5405 25.293C52.003 35.2352 50.489 45.1719 48.9983 55.1141C48.8296 56.2844 48.4124 56.7656 47.4843 57.0773C36.4265 61.1516 25.364 65.193 14.3765 69.382C11.9359 70.2652 9.59913 71.4997 7.4202 73.057C0.899888 77.8969 -0.0751115 85.8484 4.80926 92.8266C6.98426 95.9055 9.76395 98.0383 12.8436 99.6352C19.7296 103.223 26.6155 106.755 33.4733 110.376C33.5952 110.43 33.6936 110.463 33.7921 110.518H33.7686L41.9483 114.423V114.937C40.7015 129.746 39.5061 144.561 38.3108 159.398C38.0671 162.444 38.2358 165.435 39.1639 168.372C41.1421 174.694 45.8061 176.717 50.9061 173.469C53.2265 171.987 55.0827 169.854 56.7655 167.513C65.3343 155.663 73.9264 143.845 82.4718 131.966C83.1561 130.998 83.7421 130.884 84.7405 131.255C86.9155 132.109 89.0858 132.934 91.2608 133.793H91.2843C91.4061 133.88 91.5515 133.935 91.7249 134.023L92.6296 134.334C100.416 137.353 109.378 139.973 117.164 142.991C119.676 143.959 121.069 144.189 123.708 143.702C125.662 143.358 127.42 143.248 128.883 141.991C130.774 140.795 132.348 139.019 133.437 136.856C134.526 134.692 135.087 132.222 135.061 129.713C135.037 126.607 134.086 123.791 132.862 121.084C127.734 109.72 122.634 98.3828 117.483 87.0461C116.995 85.9633 117.019 85.2797 117.726 84.3117C126.347 72.5484 134.939 60.725 143.555 48.907C145.237 46.5719 146.751 44.1219 147.633 41.1906C149.559 34.8086 147.07 29.7391 141.384 28.5141C138.814 28.002 136.177 28.1683 133.669 29.0008C121.317 32.818 108.984 36.6078 96.6796 40.4523C95.5827 40.7969 95.0436 40.5672 94.4577 39.3969C89.472 29.5952 84.4266 19.8351 79.3218 10.1172C78.1754 7.86899 76.8067 5.7857 75.2436 3.91016C72.9233 1.23047 70.2374 -0.0765625 67.5796 0.00546875V0ZM68.653 27.0047C69.1468 27.3957 69.5495 27.9238 69.8249 28.5414C75.2671 39.0797 80.7139 49.618 86.1327 60.1836C86.5733 61.0367 86.9858 61.3211 87.8671 61.0367C97.4108 58.0727 106.936 55.1141 116.48 52.1773C118.776 51.4664 121.069 50.7828 123.389 50.0719C123.292 50.6135 123.074 51.1155 122.756 51.5266C114.9 62.3252 107.031 73.1115 99.1499 83.8852C98.4655 84.8531 98.3952 85.5094 98.8827 86.5922C104.742 99.75 109.941 110.715 114.506 121.313L91.4108 113.881L81.3046 109.949C80.3014 109.55 79.7436 109.72 79.0593 110.66C71.2733 121.51 63.4077 132.338 55.5749 143.161C55.2844 143.593 54.8941 143.919 54.4499 144.102C54.6702 141.367 54.8671 138.605 55.0827 135.844C56.0343 124.365 56.9389 112.913 57.9139 101.434C57.7171 99.1266 58.6452 98.5031 55.889 97.475C46.5608 93.1437 34.9921 87.85 25.8093 83.5734C26.2294 83.1112 26.7418 82.7785 27.2999 82.6055C38.5311 78.4492 49.7624 74.2875 61.0171 70.1586C61.7999 69.8742 62.264 69.5023 62.3343 68.4797C62.4093 67.3969 62.653 66.3141 62.7983 65.2586L67.3405 35.4375C67.7811 32.6156 68.2218 29.8266 68.6577 27.0047H68.653Z" fill="black"/>
</svg>
