<svg width="150" height="175" viewBox="0 0 150 175" fill="none" xmlns="http://www.w3.org/2000/svg">
<g clip-path="url(#clip0_7_215)">
<path fill-rule="evenodd" clip-rule="evenodd" d="M131.25 49.2188V153.125C131.25 158.927 129.275 164.491 125.758 168.593C122.242 172.695 117.473 175 112.5 175V164.062C114.986 164.062 117.371 162.91 119.129 160.859C120.887 158.808 121.875 156.026 121.875 153.125V49.2188H103.125C99.3954 49.2188 95.8185 47.4902 93.1813 44.4135C90.5441 41.3367 89.0625 37.1637 89.0625 32.8125V10.9375H37.5C35.0136 10.9375 32.629 12.0898 30.8709 14.141C29.1127 16.1922 28.125 18.9742 28.125 21.875V120.312H18.75V21.875C18.75 16.0734 20.7254 10.5094 24.2417 6.40704C27.7581 2.30468 32.5272 0 37.5 0L89.0625 0L131.25 49.2188ZM0 162.323C0.0530924 164.047 0.415042 165.738 1.06253 167.289C1.71003 168.839 2.6287 170.214 3.75937 171.325C4.97813 172.506 6.45937 173.425 8.24063 174.081C10.0219 174.738 12.0938 175.077 14.475 175.077C17.6438 175.077 20.325 174.497 22.5187 173.348C24.7406 172.189 26.4187 170.592 27.5812 168.536C28.7635 166.401 29.3738 163.903 29.3344 161.361C29.3344 158.911 28.9125 156.877 28.0688 155.236C27.211 153.597 25.9985 152.25 24.5531 151.331C22.8955 150.262 21.1101 149.488 19.2562 149.034L13.4344 147.459C12.0587 147.167 10.7594 146.508 9.6375 145.534C9.21093 145.149 8.86754 144.653 8.63476 144.085C8.40198 143.517 8.28627 142.893 8.29688 142.264C8.29688 140.558 8.86875 139.158 10.0219 138.064C11.1938 136.959 12.7969 136.402 14.8313 136.402C16.1719 136.402 17.325 136.642 18.3 137.145C19.194 137.574 19.9832 138.254 20.5969 139.125C21.1739 139.937 21.5614 140.909 21.7219 141.947H28.7531C28.6389 139.721 27.9926 137.576 26.8875 135.756C25.7026 133.793 24.0823 132.243 22.2 131.272C19.8979 130.094 17.4004 129.526 14.8875 129.609C12.1406 129.609 9.7125 130.156 7.6125 131.25C5.50312 132.333 3.8625 133.875 2.6625 135.855C1.47188 137.845 0.88125 140.175 0.88125 142.844C0.88125 145.042 1.25625 146.956 2.03437 148.575C2.80312 150.205 3.9 151.528 5.325 152.589C6.75938 153.628 8.4375 154.416 10.3875 154.919L16.1812 156.494C18.1219 157.03 19.5562 157.73 20.5125 158.605C20.9801 159.018 21.3548 159.557 21.6046 160.176C21.8544 160.795 21.9719 161.476 21.9469 162.159C21.9469 163.363 21.675 164.423 21.15 165.331C20.5456 166.298 19.711 167.036 18.75 167.453C17.7094 167.967 16.4156 168.219 14.8781 168.219C13.7812 168.219 12.7781 168.077 11.8781 167.781C11.0492 167.514 10.2636 167.089 9.55313 166.523C8.92938 166.052 8.39534 165.435 7.98411 164.713C7.57289 163.99 7.29324 163.177 7.1625 162.323H0ZM64.4812 178.609L59.7281 170.527C61.3781 168.755 62.6344 166.567 63.4875 163.964C64.35 161.35 64.7812 158.419 64.7812 155.148V149.669C64.7812 145.611 64.125 142.089 62.8313 139.092C61.6199 136.188 59.6985 133.768 57.3094 132.136C54.9094 130.495 52.05 129.675 48.7125 129.675C45.4219 129.675 42.5625 130.495 40.1437 132.136C37.7438 133.766 35.8969 136.073 34.5938 139.092C33.2538 142.394 32.5955 146.016 32.6719 149.669V155.137C32.6719 159.184 33.3188 162.695 34.5938 165.692C35.8969 168.678 37.7438 170.997 40.1437 172.648C42.7651 174.33 45.7223 175.168 48.7125 175.077C50.6271 175.087 52.5293 174.717 54.3375 173.983L57.0938 178.598H64.4812V178.609ZM39.9562 155.312V149.603C39.9562 146.913 40.3125 144.616 41.025 142.713C41.6611 140.95 42.7189 139.439 44.0719 138.359C45.4567 137.332 47.0717 136.807 48.7125 136.85C50.5125 136.85 52.0594 137.353 53.3531 138.359C54.7173 139.424 55.7782 140.94 56.4 142.713C57.1219 144.616 57.4781 146.913 57.4781 149.603V155.312C57.4781 157.106 57.3094 158.725 56.9813 160.18C56.6531 161.602 56.1656 162.848 55.5281 163.898L54.5344 162.367L53.55 160.759H46.6781L50.9062 167.869C50.1596 168.223 49.3592 168.398 48.5531 168.383C46.9281 168.388 45.3386 167.828 43.9875 166.775C42.6456 165.667 41.6044 164.134 40.9875 162.356C40.2496 160.11 39.8992 157.717 39.9562 155.312ZM77.325 166.873H93.225V174.245H69.9094V130.506H77.3156V166.873H77.325Z" fill="#0D0D0D"/>
</g>
<defs>
<clipPath id="clip0_7_215">
<rect width="150" height="175" fill="white"/>
</clipPath>
</defs>
</svg>
