<svg width="72" height="83" viewBox="0 0 72 83" fill="none" xmlns="http://www.w3.org/2000/svg">
<path d="M61.875 9.07812H10.125C8.88047 9.07812 7.875 10.2372 7.875 11.6719V71.3281C7.875 72.7628 8.88047 73.9219 10.125 73.9219H61.875C63.1195 73.9219 64.125 72.7628 64.125 71.3281V11.6719C64.125 10.2372 63.1195 9.07812 61.875 9.07812ZM51.1383 32.5597C51.1594 32.9406 51.1594 33.3378 51.1594 33.7269C51.1594 45.6257 43.2984 59.332 28.9336 59.332C24.5039 59.332 20.3977 57.8487 16.9383 55.2955C17.5711 55.3766 18.1758 55.409 18.8227 55.409C22.4789 55.409 25.8398 53.9824 28.5188 51.567C25.0875 51.4859 22.2047 48.8922 21.2203 45.3258C22.4227 45.5284 23.5055 45.5284 24.743 45.1637C22.9762 44.7499 21.3882 43.6438 20.2487 42.0332C19.1092 40.4226 18.4886 38.407 18.4922 36.3287V36.2152C19.5258 36.888 20.7422 37.3014 22.0148 37.3581C20.945 36.5362 20.0676 35.4226 19.4605 34.1162C18.8533 32.8097 18.5352 31.3508 18.5344 29.8687C18.5344 28.1908 18.9141 26.6589 19.5961 25.3296C21.5571 28.1125 24.0042 30.3886 26.7783 32.0098C29.5523 33.6311 32.5913 34.5613 35.6977 34.74C34.5938 28.6204 38.5594 23.668 43.3266 23.668C45.5766 23.668 47.6016 24.7541 49.0289 26.5049C50.7938 26.1239 52.4813 25.362 53.9859 24.3407C53.4023 26.4238 52.1789 28.1827 50.5547 29.2932C52.1297 29.0986 53.6484 28.5961 55.0547 27.8909C53.993 29.6903 52.6641 31.2871 51.1383 32.5597Z" fill="black"/>
</svg>
