<svg width="59" height="67" viewBox="0 0 59 67" fill="none" xmlns="http://www.w3.org/2000/svg">
<path d="M29.5 16.0695C19.926 16.0695 12.143 23.8033 12.1298 33.3168C12.1298 36.5752 13.0517 39.7551 14.79 42.49L15.1982 43.1443L13.4467 49.5041L20.0182 47.7898L20.6503 48.1693C23.3105 49.7397 26.3657 50.5771 29.4868 50.5771H29.5C39.0609 50.5771 47.0546 42.8434 47.0546 33.3299C47.0546 28.7236 45.0529 24.3922 41.7737 21.1338C38.4814 17.8623 34.1356 16.0695 29.5 16.0695ZM39.7062 40.7234C39.2716 41.9404 37.1908 43.0396 36.19 43.1836C34.5307 43.4322 33.2401 43.3014 29.9346 41.8881C24.7064 39.6373 21.2824 34.4029 21.019 34.0627C20.7557 33.7225 18.8856 31.2492 18.8856 28.6975C18.8856 26.1457 20.2289 24.8895 20.7161 24.366C21.1902 23.8426 21.7565 23.7117 22.1121 23.7117C22.4545 23.7117 22.8101 23.7117 23.1129 23.7248C23.429 23.7379 23.8636 23.607 24.285 24.6146C24.7196 25.6484 25.76 28.2002 25.8916 28.4619C26.0233 28.7236 26.1155 29.0246 25.9312 29.3648C24.9303 31.3539 23.8636 31.2754 24.4035 32.1914C26.4184 35.633 28.4333 36.8238 31.5017 38.3549C32.0285 38.6166 32.3314 38.5773 32.6343 38.224C32.9372 37.8838 33.938 36.7061 34.2804 36.1957C34.6228 35.6723 34.9784 35.7639 35.4525 35.934C35.9266 36.1041 38.4946 37.3604 39.0214 37.6221C39.5481 37.8838 39.8905 38.0146 40.0222 38.224C40.1407 38.4727 40.1407 39.5195 39.7062 40.7234ZM52.6778 4.1875H6.3222C2.83236 4.1875 0.000976562 7.00098 0.000976562 10.4688V56.5312C0.000976562 59.999 2.83236 62.8125 6.3222 62.8125H52.6778C56.1677 62.8125 58.9991 59.999 58.9991 56.5312V10.4688C58.9991 7.00098 56.1677 4.1875 52.6778 4.1875ZM29.4868 54.0711C25.9838 54.0711 22.5467 53.1943 19.5046 51.5455L8.42927 54.4375L11.3923 43.6809C9.56182 40.5402 8.60047 36.9678 8.60047 33.3037C8.61364 21.8666 17.977 12.5625 29.4868 12.5625C35.0706 12.5625 40.3119 14.7217 44.2627 18.6475C48.2003 22.5732 50.5708 27.7814 50.5708 33.3299C50.5708 44.767 40.9967 54.0711 29.4868 54.0711Z" fill="black"/>
</svg>
